<?xml version="1.0" encoding="utf-8" standalone="no"?>
<!DOCTYPE svg PUBLIC "-//W3C//DTD SVG 1.1//EN"
  "http://www.w3.org/Graphics/SVG/1.1/DTD/svg11.dtd">
<svg xmlns:xlink="http://www.w3.org/1999/xlink" width="460.8pt" height="345.6pt" viewBox="0 0 460.8 345.6" xmlns="http://www.w3.org/2000/svg" version="1.1">
 <metadata>
  <rdf:RDF xmlns:dc="http://purl.org/dc/elements/1.1/" xmlns:cc="http://creativecommons.org/ns#" xmlns:rdf="http://www.w3.org/1999/02/22-rdf-syntax-ns#">
   <cc:Work>
    <dc:type rdf:resource="http://purl.org/dc/dcmitype/StillImage"/>
    <dc:date>2023-11-28T23:01:34.324262</dc:date>
    <dc:format>image/svg+xml</dc:format>
    <dc:creator>
     <cc:Agent>
      <dc:title>Matplotlib v3.6.2, https://matplotlib.org/</dc:title>
     </cc:Agent>
    </dc:creator>
   </cc:Work>
  </rdf:RDF>
 </metadata>
 <defs>
  <style type="text/css">*{stroke-linejoin: round; stroke-linecap: butt}</style>
 </defs>
 <g id="figure_1">
  <g id="patch_1">
   <path d="M 0 345.6 
L 460.8 345.6 
L 460.8 0 
L 0 0 
z
" style="fill: #ffffff"/>
  </g>
  <g id="axes_1">
   <g id="LineCollection_1">
    <path d="M 338.512554 170.499848 
L 309.115385 227.620434 
" clip-path="url(#p3769f22214)" style="fill: none; stroke: #000000; stroke-width: 3.765142"/>
    <path d="M 338.512554 170.499848 
L 233.524098 252.606045 
" clip-path="url(#p3769f22214)" style="fill: none"/>
    <path d="M 338.512554 170.499848 
L 156.098686 230.835931 
" clip-path="url(#p3769f22214)" style="fill: none"/>
    <path d="M 338.512554 170.499848 
L 122.207515 175.10476 
" clip-path="url(#p3769f22214)" style="fill: none"/>
    <path d="M 338.512554 170.499848 
L 151.619489 117.99288 
" clip-path="url(#p3769f22214)" style="fill: none"/>
    <path d="M 338.512554 170.499848 
L 227.167627 92.999698 
" clip-path="url(#p3769f22214)" style="fill: none"/>
    <path d="M 338.512554 170.499848 
L 304.602237 114.784284 
" clip-path="url(#p3769f22214)" style="fill: none; stroke: #000000; stroke-width: 3.765487"/>
    <path d="M 338.512554 170.499848 
L 224.984445 38.915702 
" clip-path="url(#p3769f22214)" style="fill: none"/>
    <path d="M 338.512554 170.499848 
L 48.912397 176.671952 
" clip-path="url(#p3769f22214)" style="fill: none"/>
    <path d="M 338.512554 170.499848 
L 354.865635 75.417542 
" clip-path="url(#p3769f22214)" style="fill: none"/>
    <path d="M 338.512554 170.499848 
L 235.58108 306.684298 
" clip-path="url(#p3769f22214)" style="fill: none"/>
    <path d="M 338.512554 170.499848 
L 98.287843 80.828908 
" clip-path="url(#p3769f22214)" style="fill: none"/>
    <path d="M 338.512554 170.499848 
L 411.887603 168.959204 
" clip-path="url(#p3769f22214)" style="fill: none; stroke: #000000; stroke-width: 2.469304"/>
    <path d="M 338.512554 170.499848 
L 362.48459 264.803307 
" clip-path="url(#p3769f22214)" style="fill: none"/>
    <path d="M 338.512554 170.499848 
L 105.782441 270.195253 
" clip-path="url(#p3769f22214)" style="fill: none"/>
    <path d="M 309.115385 227.620434 
L 233.524098 252.606045 
" clip-path="url(#p3769f22214)" style="fill: none; stroke: #000000; stroke-width: 3.763408"/>
    <path d="M 309.115385 227.620434 
L 156.098686 230.835931 
" clip-path="url(#p3769f22214)" style="fill: none"/>
    <path d="M 309.115385 227.620434 
L 122.207515 175.10476 
" clip-path="url(#p3769f22214)" style="fill: none"/>
    <path d="M 309.115385 227.620434 
L 151.619489 117.99288 
" clip-path="url(#p3769f22214)" style="fill: none"/>
    <path d="M 309.115385 227.620434 
L 227.167627 92.999698 
" clip-path="url(#p3769f22214)" style="fill: none"/>
    <path d="M 309.115385 227.620434 
L 304.602237 114.784284 
" clip-path="url(#p3769f22214)" style="fill: none"/>
    <path d="M 309.115385 227.620434 
L 224.984445 38.915702 
" clip-path="url(#p3769f22214)" style="fill: none"/>
    <path d="M 309.115385 227.620434 
L 48.912397 176.671952 
" clip-path="url(#p3769f22214)" style="fill: none"/>
    <path d="M 309.115385 227.620434 
L 354.865635 75.417542 
" clip-path="url(#p3769f22214)" style="fill: none"/>
    <path d="M 309.115385 227.620434 
L 235.58108 306.684298 
" clip-path="url(#p3769f22214)" style="fill: none"/>
    <path d="M 309.115385 227.620434 
L 98.287843 80.828908 
" clip-path="url(#p3769f22214)" style="fill: none"/>
    <path d="M 309.115385 227.620434 
L 411.887603 168.959204 
" clip-path="url(#p3769f22214)" style="fill: none"/>
    <path d="M 309.115385 227.620434 
L 362.48459 264.803307 
" clip-path="url(#p3769f22214)" style="fill: none; stroke: #000000; stroke-width: 2.471458"/>
    <path d="M 309.115385 227.620434 
L 105.782441 270.195253 
" clip-path="url(#p3769f22214)" style="fill: none"/>
    <path d="M 233.524098 252.606045 
L 156.098686 230.835931 
" clip-path="url(#p3769f22214)" style="fill: none; stroke: #000000; stroke-width: 3.763628"/>
    <path d="M 233.524098 252.606045 
L 122.207515 175.10476 
" clip-path="url(#p3769f22214)" style="fill: none"/>
    <path d="M 233.524098 252.606045 
L 151.619489 117.99288 
" clip-path="url(#p3769f22214)" style="fill: none"/>
    <path d="M 233.524098 252.606045 
L 227.167627 92.999698 
" clip-path="url(#p3769f22214)" style="fill: none"/>
    <path d="M 233.524098 252.606045 
L 304.602237 114.784284 
" clip-path="url(#p3769f22214)" style="fill: none"/>
    <path d="M 233.524098 252.606045 
L 224.984445 38.915702 
" clip-path="url(#p3769f22214)" style="fill: none"/>
    <path d="M 233.524098 252.606045 
L 48.912397 176.671952 
" clip-path="url(#p3769f22214)" style="fill: none"/>
    <path d="M 233.524098 252.606045 
L 354.865635 75.417542 
" clip-path="url(#p3769f22214)" style="fill: none"/>
    <path d="M 233.524098 252.606045 
L 235.58108 306.684298 
" clip-path="url(#p3769f22214)" style="fill: none; stroke: #000000; stroke-width: 2.473032"/>
    <path d="M 233.524098 252.606045 
L 98.287843 80.828908 
" clip-path="url(#p3769f22214)" style="fill: none"/>
    <path d="M 233.524098 252.606045 
L 411.887603 168.959204 
" clip-path="url(#p3769f22214)" style="fill: none"/>
    <path d="M 233.524098 252.606045 
L 362.48459 264.803307 
" clip-path="url(#p3769f22214)" style="fill: none"/>
    <path d="M 233.524098 252.606045 
L 105.782441 270.195253 
" clip-path="url(#p3769f22214)" style="fill: none"/>
    <path d="M 156.098686 230.835931 
L 122.207515 175.10476 
" clip-path="url(#p3769f22214)" style="fill: none; stroke: #000000; stroke-width: 3.765487"/>
    <path d="M 156.098686 230.835931 
L 151.619489 117.99288 
" clip-path="url(#p3769f22214)" style="fill: none"/>
    <path d="M 156.098686 230.835931 
L 227.167627 92.999698 
" clip-path="url(#p3769f22214)" style="fill: none"/>
    <path d="M 156.098686 230.835931 
L 304.602237 114.784284 
" clip-path="url(#p3769f22214)" style="fill: none"/>
    <path d="M 156.098686 230.835931 
L 224.984445 38.915702 
" clip-path="url(#p3769f22214)" style="fill: none"/>
    <path d="M 156.098686 230.835931 
L 48.912397 176.671952 
" clip-path="url(#p3769f22214)" style="fill: none"/>
    <path d="M 156.098686 230.835931 
L 354.865635 75.417542 
" clip-path="url(#p3769f22214)" style="fill: none"/>
    <path d="M 156.098686 230.835931 
L 235.58108 306.684298 
" clip-path="url(#p3769f22214)" style="fill: none"/>
    <path d="M 156.098686 230.835931 
L 98.287843 80.828908 
" clip-path="url(#p3769f22214)" style="fill: none"/>
    <path d="M 156.098686 230.835931 
L 411.887603 168.959204 
" clip-path="url(#p3769f22214)" style="fill: none"/>
    <path d="M 156.098686 230.835931 
L 362.48459 264.803307 
" clip-path="url(#p3769f22214)" style="fill: none"/>
    <path d="M 156.098686 230.835931 
L 105.782441 270.195253 
" clip-path="url(#p3769f22214)" style="fill: none; stroke: #000000; stroke-width: 2.470875"/>
    <path d="M 122.207515 175.10476 
L 151.619489 117.99288 
" clip-path="url(#p3769f22214)" style="fill: none; stroke: #000000; stroke-width: 3.765142"/>
    <path d="M 122.207515 175.10476 
L 227.167627 92.999698 
" clip-path="url(#p3769f22214)" style="fill: none"/>
    <path d="M 122.207515 175.10476 
L 304.602237 114.784284 
" clip-path="url(#p3769f22214)" style="fill: none"/>
    <path d="M 122.207515 175.10476 
L 224.984445 38.915702 
" clip-path="url(#p3769f22214)" style="fill: none"/>
    <path d="M 122.207515 175.10476 
L 48.912397 176.671952 
" clip-path="url(#p3769f22214)" style="fill: none; stroke: #000000; stroke-width: 2.469304"/>
    <path d="M 122.207515 175.10476 
L 354.865635 75.417542 
" clip-path="url(#p3769f22214)" style="fill: none"/>
    <path d="M 122.207515 175.10476 
L 235.58108 306.684298 
" clip-path="url(#p3769f22214)" style="fill: none"/>
    <path d="M 122.207515 175.10476 
L 98.287843 80.828908 
" clip-path="url(#p3769f22214)" style="fill: none"/>
    <path d="M 122.207515 175.10476 
L 411.887603 168.959204 
" clip-path="url(#p3769f22214)" style="fill: none"/>
    <path d="M 122.207515 175.10476 
L 362.48459 264.803307 
" clip-path="url(#p3769f22214)" style="fill: none"/>
    <path d="M 122.207515 175.10476 
L 105.782441 270.195253 
" clip-path="url(#p3769f22214)" style="fill: none"/>
    <path d="M 151.619489 117.99288 
L 227.167627 92.999698 
" clip-path="url(#p3769f22214)" style="fill: none; stroke: #000000; stroke-width: 3.763408"/>
    <path d="M 151.619489 117.99288 
L 304.602237 114.784284 
" clip-path="url(#p3769f22214)" style="fill: none"/>
    <path d="M 151.619489 117.99288 
L 224.984445 38.915702 
" clip-path="url(#p3769f22214)" style="fill: none"/>
    <path d="M 151.619489 117.99288 
L 48.912397 176.671952 
" clip-path="url(#p3769f22214)" style="fill: none"/>
    <path d="M 151.619489 117.99288 
L 354.865635 75.417542 
" clip-path="url(#p3769f22214)" style="fill: none"/>
    <path d="M 151.619489 117.99288 
L 235.58108 306.684298 
" clip-path="url(#p3769f22214)" style="fill: none"/>
    <path d="M 151.619489 117.99288 
L 98.287843 80.828908 
" clip-path="url(#p3769f22214)" style="fill: none; stroke: #000000; stroke-width: 2.471459"/>
    <path d="M 151.619489 117.99288 
L 411.887603 168.959204 
" clip-path="url(#p3769f22214)" style="fill: none"/>
    <path d="M 151.619489 117.99288 
L 362.48459 264.803307 
" clip-path="url(#p3769f22214)" style="fill: none"/>
    <path d="M 151.619489 117.99288 
L 105.782441 270.195253 
" clip-path="url(#p3769f22214)" style="fill: none"/>
    <path d="M 227.167627 92.999698 
L 304.602237 114.784284 
" clip-path="url(#p3769f22214)" style="fill: none; stroke: #000000; stroke-width: 3.763628"/>
    <path d="M 227.167627 92.999698 
L 224.984445 38.915702 
" clip-path="url(#p3769f22214)" style="fill: none; stroke: #000000; stroke-width: 2.473032"/>
    <path d="M 227.167627 92.999698 
L 48.912397 176.671952 
" clip-path="url(#p3769f22214)" style="fill: none"/>
    <path d="M 227.167627 92.999698 
L 354.865635 75.417542 
" clip-path="url(#p3769f22214)" style="fill: none"/>
    <path d="M 227.167627 92.999698 
L 235.58108 306.684298 
" clip-path="url(#p3769f22214)" style="fill: none"/>
    <path d="M 227.167627 92.999698 
L 98.287843 80.828908 
" clip-path="url(#p3769f22214)" style="fill: none"/>
    <path d="M 227.167627 92.999698 
L 411.887603 168.959204 
" clip-path="url(#p3769f22214)" style="fill: none"/>
    <path d="M 227.167627 92.999698 
L 362.48459 264.803307 
" clip-path="url(#p3769f22214)" style="fill: none"/>
    <path d="M 227.167627 92.999698 
L 105.782441 270.195253 
" clip-path="url(#p3769f22214)" style="fill: none"/>
    <path d="M 304.602237 114.784284 
L 224.984445 38.915702 
" clip-path="url(#p3769f22214)" style="fill: none"/>
    <path d="M 304.602237 114.784284 
L 48.912397 176.671952 
" clip-path="url(#p3769f22214)" style="fill: none"/>
    <path d="M 304.602237 114.784284 
L 354.865635 75.417542 
" clip-path="url(#p3769f22214)" style="fill: none; stroke: #000000; stroke-width: 2.470875"/>
    <path d="M 304.602237 114.784284 
L 235.58108 306.684298 
" clip-path="url(#p3769f22214)" style="fill: none"/>
    <path d="M 304.602237 114.784284 
L 98.287843 80.828908 
" clip-path="url(#p3769f22214)" style="fill: none"/>
    <path d="M 304.602237 114.784284 
L 411.887603 168.959204 
" clip-path="url(#p3769f22214)" style="fill: none"/>
    <path d="M 304.602237 114.784284 
L 362.48459 264.803307 
" clip-path="url(#p3769f22214)" style="fill: none"/>
    <path d="M 304.602237 114.784284 
L 105.782441 270.195253 
" clip-path="url(#p3769f22214)" style="fill: none"/>
    <path d="M 224.984445 38.915702 
L 48.912397 176.671952 
" clip-path="url(#p3769f22214)" style="fill: none"/>
    <path d="M 224.984445 38.915702 
L 354.865635 75.417542 
" clip-path="url(#p3769f22214)" style="fill: none"/>
    <path d="M 224.984445 38.915702 
L 235.58108 306.684298 
" clip-path="url(#p3769f22214)" style="fill: none"/>
    <path d="M 224.984445 38.915702 
L 98.287843 80.828908 
" clip-path="url(#p3769f22214)" style="fill: none"/>
    <path d="M 224.984445 38.915702 
L 411.887603 168.959204 
" clip-path="url(#p3769f22214)" style="fill: none"/>
    <path d="M 224.984445 38.915702 
L 362.48459 264.803307 
" clip-path="url(#p3769f22214)" style="fill: none"/>
    <path d="M 224.984445 38.915702 
L 105.782441 270.195253 
" clip-path="url(#p3769f22214)" style="fill: none"/>
    <path d="M 48.912397 176.671952 
L 354.865635 75.417542 
" clip-path="url(#p3769f22214)" style="fill: none"/>
    <path d="M 48.912397 176.671952 
L 235.58108 306.684298 
" clip-path="url(#p3769f22214)" style="fill: none"/>
    <path d="M 48.912397 176.671952 
L 98.287843 80.828908 
" clip-path="url(#p3769f22214)" style="fill: none"/>
    <path d="M 48.912397 176.671952 
L 411.887603 168.959204 
" clip-path="url(#p3769f22214)" style="fill: none"/>
    <path d="M 48.912397 176.671952 
L 362.48459 264.803307 
" clip-path="url(#p3769f22214)" style="fill: none"/>
    <path d="M 48.912397 176.671952 
L 105.782441 270.195253 
" clip-path="url(#p3769f22214)" style="fill: none"/>
    <path d="M 354.865635 75.417542 
L 235.58108 306.684298 
" clip-path="url(#p3769f22214)" style="fill: none"/>
    <path d="M 354.865635 75.417542 
L 98.287843 80.828908 
" clip-path="url(#p3769f22214)" style="fill: none"/>
    <path d="M 354.865635 75.417542 
L 411.887603 168.959204 
" clip-path="url(#p3769f22214)" style="fill: none"/>
    <path d="M 354.865635 75.417542 
L 362.48459 264.803307 
" clip-path="url(#p3769f22214)" style="fill: none"/>
    <path d="M 354.865635 75.417542 
L 105.782441 270.195253 
" clip-path="url(#p3769f22214)" style="fill: none"/>
    <path d="M 235.58108 306.684298 
L 98.287843 80.828908 
" clip-path="url(#p3769f22214)" style="fill: none"/>
    <path d="M 235.58108 306.684298 
L 411.887603 168.959204 
" clip-path="url(#p3769f22214)" style="fill: none"/>
    <path d="M 235.58108 306.684298 
L 362.48459 264.803307 
" clip-path="url(#p3769f22214)" style="fill: none"/>
    <path d="M 235.58108 306.684298 
L 105.782441 270.195253 
" clip-path="url(#p3769f22214)" style="fill: none"/>
    <path d="M 98.287843 80.828908 
L 411.887603 168.959204 
" clip-path="url(#p3769f22214)" style="fill: none"/>
    <path d="M 98.287843 80.828908 
L 362.48459 264.803307 
" clip-path="url(#p3769f22214)" style="fill: none"/>
    <path d="M 98.287843 80.828908 
L 105.782441 270.195253 
" clip-path="url(#p3769f22214)" style="fill: none"/>
    <path d="M 411.887603 168.959204 
L 362.48459 264.803307 
" clip-path="url(#p3769f22214)" style="fill: none"/>
    <path d="M 411.887603 168.959204 
L 105.782441 270.195253 
" clip-path="url(#p3769f22214)" style="fill: none"/>
    <path d="M 362.48459 264.803307 
L 105.782441 270.195253 
" clip-path="url(#p3769f22214)" style="fill: none"/>
   </g>
   <g id="PathCollection_1">
    <defs>
     <path id="m8a0c7939a0" d="M 0 11.18034 
C 2.965061 11.18034 5.80908 10.002309 7.905694 7.905694 
C 10.002309 5.80908 11.18034 2.965061 11.18034 0 
C 11.18034 -2.965061 10.002309 -5.80908 7.905694 -7.905694 
C 5.80908 -10.002309 2.965061 -11.18034 0 -11.18034 
C -2.965061 -11.18034 -5.80908 -10.002309 -7.905694 -7.905694 
C -10.002309 -5.80908 -11.18034 -2.965061 -11.18034 0 
C -11.18034 2.965061 -10.002309 5.80908 -7.905694 7.905694 
C -5.80908 10.002309 -2.965061 11.18034 0 11.18034 
z
" style="stroke: #87ceeb"/>
    </defs>
    <g clip-path="url(#p3769f22214)">
     <use xlink:href="#m8a0c7939a0" x="338.512554" y="170.499848" style="fill: #87ceeb; stroke: #87ceeb"/>
     <use xlink:href="#m8a0c7939a0" x="309.115385" y="227.620434" style="fill: #87ceeb; stroke: #87ceeb"/>
     <use xlink:href="#m8a0c7939a0" x="233.524098" y="252.606045" style="fill: #87ceeb; stroke: #87ceeb"/>
     <use xlink:href="#m8a0c7939a0" x="156.098686" y="230.835931" style="fill: #87ceeb; stroke: #87ceeb"/>
     <use xlink:href="#m8a0c7939a0" x="122.207515" y="175.10476" style="fill: #87ceeb; stroke: #87ceeb"/>
     <use xlink:href="#m8a0c7939a0" x="151.619489" y="117.99288" style="fill: #87ceeb; stroke: #87ceeb"/>
     <use xlink:href="#m8a0c7939a0" x="227.167627" y="92.999698" style="fill: #87ceeb; stroke: #87ceeb"/>
     <use xlink:href="#m8a0c7939a0" x="304.602237" y="114.784284" style="fill: #87ceeb; stroke: #87ceeb"/>
     <use xlink:href="#m8a0c7939a0" x="224.984445" y="38.915702" style="fill: #87ceeb; stroke: #87ceeb"/>
     <use xlink:href="#m8a0c7939a0" x="48.912397" y="176.671952" style="fill: #87ceeb; stroke: #87ceeb"/>
     <use xlink:href="#m8a0c7939a0" x="354.865635" y="75.417542" style="fill: #87ceeb; stroke: #87ceeb"/>
     <use xlink:href="#m8a0c7939a0" x="235.58108" y="306.684298" style="fill: #87ceeb; stroke: #87ceeb"/>
     <use xlink:href="#m8a0c7939a0" x="98.287843" y="80.828908" style="fill: #87ceeb; stroke: #87ceeb"/>
     <use xlink:href="#m8a0c7939a0" x="411.887603" y="168.959204" style="fill: #87ceeb; stroke: #87ceeb"/>
     <use xlink:href="#m8a0c7939a0" x="362.48459" y="264.803307" style="fill: #87ceeb; stroke: #87ceeb"/>
     <use xlink:href="#m8a0c7939a0" x="105.782441" y="270.195253" style="fill: #87ceeb; stroke: #87ceeb"/>
    </g>
   </g>
   <g id="text_1">
    <g clip-path="url(#p3769f22214)">
     <!-- 1 -->
     <g transform="translate(334.994586 173.522114) scale(0.15 -0.15)">
      <defs>
       <path id="STSong-31" d="M 2272 -19 
Q 1939 0 1523 0 
Q 1107 0 774 -19 
L 774 83 
L 1107 141 
Q 1331 186 1331 390 
L 1331 3552 
L 570 3059 
L 480 3181 
Q 922 3469 1542 4064 
L 1754 4064 
L 1754 390 
Q 1754 173 1978 134 
L 2272 83 
L 2272 -19 
z
" transform="scale(0.015625)"/>
      </defs>
      <use xlink:href="#STSong-31"/>
     </g>
    </g>
   </g>
   <g id="text_2">
    <g clip-path="url(#p3769f22214)">
     <!-- 2 -->
     <g transform="translate(305.597416 230.642699) scale(0.15 -0.15)">
      <defs>
       <path id="STSong-32" d="M 2726 -19 
Q 2266 0 1421 0 
Q 595 0 141 -19 
Q 262 230 448 454 
Q 634 678 1043 1088 
Q 1638 1683 1913 2102 
Q 2189 2522 2189 2950 
Q 2189 3302 1968 3520 
Q 1747 3738 1421 3738 
Q 1101 3738 838 3517 
Q 576 3296 474 2893 
L 326 2918 
Q 429 3462 755 3763 
Q 1082 4064 1549 4064 
Q 2016 4064 2342 3753 
Q 2669 3443 2669 3008 
Q 2669 2573 2365 2192 
Q 2061 1811 1446 1242 
Q 1120 941 634 339 
L 2138 339 
Q 2381 339 2480 425 
Q 2579 512 2688 800 
L 2822 800 
L 2726 -19 
z
" transform="scale(0.015625)"/>
      </defs>
      <use xlink:href="#STSong-32"/>
     </g>
    </g>
   </g>
   <g id="text_3">
    <g clip-path="url(#p3769f22214)">
     <!-- 3 -->
     <g transform="translate(230.006129 255.628311) scale(0.15 -0.15)">
      <defs>
       <path id="STSong-33" d="M 602 3130 
L 486 3194 
Q 672 3635 934 3849 
Q 1197 4064 1594 4064 
Q 1952 4064 2195 3859 
Q 2438 3654 2438 3405 
Q 2438 3155 2268 2931 
Q 2099 2707 1741 2438 
Q 2208 2470 2489 2163 
Q 2771 1856 2771 1376 
Q 2771 755 2329 326 
Q 1888 -102 1203 -102 
Q 762 -102 531 3 
Q 301 109 301 250 
Q 301 314 361 368 
Q 422 422 493 422 
Q 602 422 742 307 
Q 1101 38 1350 38 
Q 1741 38 2038 377 
Q 2336 717 2336 1203 
Q 2336 1613 2134 1878 
Q 1933 2144 1626 2144 
Q 1389 2144 1139 1926 
L 1069 2048 
Q 1197 2163 1350 2278 
Q 2054 2797 2054 3155 
Q 2054 3418 1878 3578 
Q 1702 3738 1440 3738 
Q 1184 3738 957 3581 
Q 730 3424 602 3130 
z
" transform="scale(0.015625)"/>
      </defs>
      <use xlink:href="#STSong-33"/>
     </g>
    </g>
   </g>
   <g id="text_4">
    <g clip-path="url(#p3769f22214)">
     <!-- 4 -->
     <g transform="translate(152.580717 233.858196) scale(0.15 -0.15)">
      <defs>
       <path id="STSong-34" d="M 2086 4064 
L 2240 4064 
L 2240 1408 
L 2918 1408 
L 2918 1114 
L 2240 1114 
L 2240 -102 
L 1818 -102 
L 1818 1114 
L 179 1114 
L 179 1325 
L 941 2438 
L 2086 4064 
z
M 1818 1408 
L 1818 3373 
Q 947 2163 486 1408 
L 1818 1408 
z
" transform="scale(0.015625)"/>
      </defs>
      <use xlink:href="#STSong-34"/>
     </g>
    </g>
   </g>
   <g id="text_5">
    <g clip-path="url(#p3769f22214)">
     <!-- 5 -->
     <g transform="translate(118.689546 178.127025) scale(0.15 -0.15)">
      <defs>
       <path id="STSong-35" d="M 2432 3622 
L 1536 3622 
Q 1037 3622 986 3603 
L 902 2432 
Q 1184 2566 1478 2566 
Q 2003 2566 2368 2208 
Q 2733 1850 2733 1274 
Q 2733 634 2281 266 
Q 1830 -102 1254 -102 
Q 934 -102 665 10 
Q 397 122 397 256 
Q 397 320 454 387 
Q 512 454 614 454 
Q 685 454 730 422 
Q 1178 83 1453 83 
Q 1811 83 2086 393 
Q 2362 704 2362 1126 
Q 2362 1574 2083 1872 
Q 1805 2170 1395 2170 
Q 1216 2170 1059 2112 
Q 902 2054 832 1952 
L 723 1952 
L 845 4000 
L 1542 4000 
Q 2022 4000 2176 4013 
Q 2330 4026 2394 4109 
L 2490 4109 
L 2432 3622 
z
" transform="scale(0.015625)"/>
      </defs>
      <use xlink:href="#STSong-35"/>
     </g>
    </g>
   </g>
   <g id="text_6">
    <g clip-path="url(#p3769f22214)">
     <!-- 6 -->
     <g transform="translate(148.10152 121.015145) scale(0.15 -0.15)">
      <defs>
       <path id="STSong-36" d="M 2458 4083 
L 2509 3962 
Q 1709 3661 1232 2934 
Q 755 2208 755 1376 
Q 755 826 985 432 
Q 1216 38 1549 38 
Q 2266 38 2266 1178 
Q 2266 1658 2080 1926 
Q 1894 2195 1613 2195 
Q 1504 2195 1402 2150 
L 1331 2253 
Q 1536 2342 1747 2342 
Q 2170 2342 2448 2022 
Q 2726 1702 2726 1146 
Q 2726 614 2396 256 
Q 2067 -102 1542 -102 
Q 998 -102 656 323 
Q 314 749 314 1478 
Q 314 2362 893 3088 
Q 1472 3814 2458 4083 
z
" transform="scale(0.015625)"/>
      </defs>
      <use xlink:href="#STSong-36"/>
     </g>
    </g>
   </g>
   <g id="text_7">
    <g clip-path="url(#p3769f22214)">
     <!-- 7 -->
     <g transform="translate(223.649658 96.021963) scale(0.15 -0.15)">
      <defs>
       <path id="STSong-37" d="M 294 4000 
L 2758 4000 
L 2758 3891 
Q 2541 3507 1981 1929 
Q 1421 352 1363 0 
L 1152 0 
Q 1459 1325 2387 3610 
L 659 3610 
Q 499 3610 486 3526 
L 435 3258 
L 294 3258 
L 294 4000 
z
" transform="scale(0.015625)"/>
      </defs>
      <use xlink:href="#STSong-37"/>
     </g>
    </g>
   </g>
   <g id="text_8">
    <g clip-path="url(#p3769f22214)">
     <!-- 8 -->
     <g transform="translate(301.084268 117.806549) scale(0.15 -0.15)">
      <defs>
       <path id="STSong-38" d="M 1267 1997 
Q 493 2381 493 3040 
Q 493 3437 809 3750 
Q 1126 4064 1555 4064 
Q 2042 4064 2342 3801 
Q 2643 3539 2643 3142 
Q 2643 2797 2451 2585 
Q 2259 2374 1901 2195 
Q 2490 1914 2656 1626 
Q 2822 1338 2822 1050 
Q 2822 582 2473 240 
Q 2125 -102 1606 -102 
Q 1069 -102 749 195 
Q 429 493 429 947 
Q 429 1222 557 1488 
Q 685 1754 1267 1997 
z
M 1760 2272 
Q 2022 2394 2163 2627 
Q 2304 2861 2304 3136 
Q 2304 3475 2109 3696 
Q 1914 3917 1568 3917 
Q 1254 3917 1056 3702 
Q 858 3488 858 3174 
Q 858 3014 915 2860 
Q 973 2707 1232 2528 
Q 1491 2349 1760 2272 
z
M 1421 1926 
Q 1094 1766 953 1532 
Q 813 1299 813 909 
Q 813 518 1037 284 
Q 1261 51 1600 51 
Q 1952 51 2185 284 
Q 2419 518 2419 883 
Q 2419 1267 2185 1497 
Q 1952 1728 1421 1926 
z
" transform="scale(0.015625)"/>
      </defs>
      <use xlink:href="#STSong-38"/>
     </g>
    </g>
   </g>
   <g id="text_9">
    <g clip-path="url(#p3769f22214)">
     <!-- 9 -->
     <g transform="translate(221.466476 41.937968) scale(0.15 -0.15)">
      <defs>
       <path id="STSong-39" d="M 1677 1651 
Q 1498 1555 1299 1555 
Q 890 1555 586 1910 
Q 282 2266 282 2790 
Q 282 3328 627 3696 
Q 973 4064 1466 4064 
Q 2022 4064 2361 3622 
Q 2701 3181 2701 2477 
Q 2701 1485 2096 749 
Q 1491 13 544 -122 
L 518 19 
Q 1331 179 1788 857 
Q 2246 1536 2246 2534 
Q 2246 3200 2022 3561 
Q 1798 3923 1414 3923 
Q 1120 3923 934 3596 
Q 749 3270 749 2733 
Q 749 2291 928 2022 
Q 1107 1754 1402 1754 
Q 1504 1754 1619 1786 
L 1677 1651 
z
" transform="scale(0.015625)"/>
      </defs>
      <use xlink:href="#STSong-39"/>
     </g>
    </g>
   </g>
   <g id="text_10">
    <g clip-path="url(#p3769f22214)">
     <!-- 10 -->
     <g transform="translate(41.876459 179.694218) scale(0.15 -0.15)">
      <defs>
       <path id="STSong-30" d="M 1517 4064 
Q 2048 4064 2435 3465 
Q 2822 2867 2822 1978 
Q 2822 1094 2435 496 
Q 2048 -102 1517 -102 
Q 1005 -102 608 490 
Q 211 1082 211 1978 
Q 211 2867 598 3465 
Q 986 4064 1517 4064 
z
M 1517 45 
Q 1990 45 2172 515 
Q 2355 986 2355 1978 
Q 2355 2970 2172 3443 
Q 1990 3917 1517 3917 
Q 1043 3917 860 3443 
Q 678 2970 678 1978 
Q 678 45 1517 45 
z
" transform="scale(0.015625)"/>
      </defs>
      <use xlink:href="#STSong-31"/>
      <use xlink:href="#STSong-30" x="46.899994"/>
     </g>
    </g>
   </g>
   <g id="text_11">
    <g clip-path="url(#p3769f22214)">
     <!-- 11 -->
     <g transform="translate(347.829697 78.439808) scale(0.15 -0.15)">
      <use xlink:href="#STSong-31"/>
      <use xlink:href="#STSong-31" x="46.899994"/>
     </g>
    </g>
   </g>
   <g id="text_12">
    <g clip-path="url(#p3769f22214)">
     <!-- 12 -->
     <g transform="translate(228.545143 309.706563) scale(0.15 -0.15)">
      <use xlink:href="#STSong-31"/>
      <use xlink:href="#STSong-32" x="46.899994"/>
     </g>
    </g>
   </g>
   <g id="text_13">
    <g clip-path="url(#p3769f22214)">
     <!-- 13 -->
     <g transform="translate(91.251906 83.851174) scale(0.15 -0.15)">
      <use xlink:href="#STSong-31"/>
      <use xlink:href="#STSong-33" x="46.899994"/>
     </g>
    </g>
   </g>
   <g id="text_14">
    <g clip-path="url(#p3769f22214)">
     <!-- 14 -->
     <g transform="translate(404.851666 171.98147) scale(0.15 -0.15)">
      <use xlink:href="#STSong-31"/>
      <use xlink:href="#STSong-34" x="46.899994"/>
     </g>
    </g>
   </g>
   <g id="text_15">
    <g clip-path="url(#p3769f22214)">
     <!-- 15 -->
     <g transform="translate(355.448653 267.825573) scale(0.15 -0.15)">
      <use xlink:href="#STSong-31"/>
      <use xlink:href="#STSong-35" x="46.899994"/>
     </g>
    </g>
   </g>
   <g id="text_16">
    <g clip-path="url(#p3769f22214)">
     <!-- 16 -->
     <g transform="translate(98.746503 273.217518) scale(0.15 -0.15)">
      <use xlink:href="#STSong-31"/>
      <use xlink:href="#STSong-36" x="46.899994"/>
     </g>
    </g>
   </g>
  </g>
 </g>
 <defs>
  <clipPath id="p3769f22214">
   <rect x="10.8" y="10.8" width="439.2" height="324"/>
  </clipPath>
 </defs>
</svg>
