<?xml version="1.0" encoding="utf-8" standalone="no"?>
<!DOCTYPE svg PUBLIC "-//W3C//DTD SVG 1.1//EN"
  "http://www.w3.org/Graphics/SVG/1.1/DTD/svg11.dtd">
<svg xmlns:xlink="http://www.w3.org/1999/xlink" width="504pt" height="360pt" viewBox="0 0 504 360" xmlns="http://www.w3.org/2000/svg" version="1.1">
 <metadata>
  <rdf:RDF xmlns:dc="http://purl.org/dc/elements/1.1/" xmlns:cc="http://creativecommons.org/ns#" xmlns:rdf="http://www.w3.org/1999/02/22-rdf-syntax-ns#">
   <cc:Work>
    <dc:type rdf:resource="http://purl.org/dc/dcmitype/StillImage"/>
    <dc:date>2023-11-30T10:54:32.990879</dc:date>
    <dc:format>image/svg+xml</dc:format>
    <dc:creator>
     <cc:Agent>
      <dc:title>Matplotlib v3.6.2, https://matplotlib.org/</dc:title>
     </cc:Agent>
    </dc:creator>
   </cc:Work>
  </rdf:RDF>
 </metadata>
 <defs>
  <style type="text/css">*{stroke-linejoin: round; stroke-linecap: butt}</style>
 </defs>
 <g id="figure_1">
  <g id="patch_1">
   <path d="M 0 360 
L 504 360 
L 504 0 
L 0 0 
z
" style="fill: #ffffff"/>
  </g>
  <g id="axes_1">
   <g id="patch_2">
    <path d="M 47.16875 313.39375 
L 482.535 313.39375 
L 482.535 16.540225 
L 47.16875 16.540225 
z
" style="fill: #ffffff"/>
   </g>
   <g id="matplotlib.axis_1">
    <g id="xtick_1">
     <g id="line2d_1">
      <defs>
       <path id="mb6d18eb0cf" d="M 0 0 
L 0 3.5 
" style="stroke: #000000; stroke-width: 0.8"/>
      </defs>
      <g>
       <use xlink:href="#mb6d18eb0cf" x="47.16875" y="313.39375" style="stroke: #000000; stroke-width: 0.8"/>
      </g>
     </g>
     <g id="text_1">
      <!-- 0 -->
      <g transform="translate(44.354375 328.31375) scale(0.12 -0.12)">
       <defs>
        <path id="STSong-30" d="M 1517 4064 
Q 2048 4064 2435 3465 
Q 2822 2867 2822 1978 
Q 2822 1094 2435 496 
Q 2048 -102 1517 -102 
Q 1005 -102 608 490 
Q 211 1082 211 1978 
Q 211 2867 598 3465 
Q 986 4064 1517 4064 
z
M 1517 45 
Q 1990 45 2172 515 
Q 2355 986 2355 1978 
Q 2355 2970 2172 3443 
Q 1990 3917 1517 3917 
Q 1043 3917 860 3443 
Q 678 2970 678 1978 
Q 678 45 1517 45 
z
" transform="scale(0.015625)"/>
       </defs>
       <use xlink:href="#STSong-30"/>
      </g>
     </g>
    </g>
    <g id="xtick_2">
     <g id="line2d_2">
      <g>
       <use xlink:href="#mb6d18eb0cf" x="101.589531" y="313.39375" style="stroke: #000000; stroke-width: 0.8"/>
      </g>
     </g>
     <g id="text_2">
      <!-- 50 -->
      <g transform="translate(95.960781 328.31375) scale(0.12 -0.12)">
       <defs>
        <path id="STSong-35" d="M 2432 3622 
L 1536 3622 
Q 1037 3622 986 3603 
L 902 2432 
Q 1184 2566 1478 2566 
Q 2003 2566 2368 2208 
Q 2733 1850 2733 1274 
Q 2733 634 2281 266 
Q 1830 -102 1254 -102 
Q 934 -102 665 10 
Q 397 122 397 256 
Q 397 320 454 387 
Q 512 454 614 454 
Q 685 454 730 422 
Q 1178 83 1453 83 
Q 1811 83 2086 393 
Q 2362 704 2362 1126 
Q 2362 1574 2083 1872 
Q 1805 2170 1395 2170 
Q 1216 2170 1059 2112 
Q 902 2054 832 1952 
L 723 1952 
L 845 4000 
L 1542 4000 
Q 2022 4000 2176 4013 
Q 2330 4026 2394 4109 
L 2490 4109 
L 2432 3622 
z
" transform="scale(0.015625)"/>
       </defs>
       <use xlink:href="#STSong-35"/>
       <use xlink:href="#STSong-30" x="46.899994"/>
      </g>
     </g>
    </g>
    <g id="xtick_3">
     <g id="line2d_3">
      <g>
       <use xlink:href="#mb6d18eb0cf" x="156.010313" y="313.39375" style="stroke: #000000; stroke-width: 0.8"/>
      </g>
     </g>
     <g id="text_3">
      <!-- 100 -->
      <g transform="translate(147.567188 328.31375) scale(0.12 -0.12)">
       <defs>
        <path id="STSong-31" d="M 2272 -19 
Q 1939 0 1523 0 
Q 1107 0 774 -19 
L 774 83 
L 1107 141 
Q 1331 186 1331 390 
L 1331 3552 
L 570 3059 
L 480 3181 
Q 922 3469 1542 4064 
L 1754 4064 
L 1754 390 
Q 1754 173 1978 134 
L 2272 83 
L 2272 -19 
z
" transform="scale(0.015625)"/>
       </defs>
       <use xlink:href="#STSong-31"/>
       <use xlink:href="#STSong-30" x="46.899994"/>
       <use xlink:href="#STSong-30" x="93.799988"/>
      </g>
     </g>
    </g>
    <g id="xtick_4">
     <g id="line2d_4">
      <g>
       <use xlink:href="#mb6d18eb0cf" x="210.431094" y="313.39375" style="stroke: #000000; stroke-width: 0.8"/>
      </g>
     </g>
     <g id="text_4">
      <!-- 150 -->
      <g transform="translate(201.987969 328.31375) scale(0.12 -0.12)">
       <use xlink:href="#STSong-31"/>
       <use xlink:href="#STSong-35" x="46.899994"/>
       <use xlink:href="#STSong-30" x="93.799988"/>
      </g>
     </g>
    </g>
    <g id="xtick_5">
     <g id="line2d_5">
      <g>
       <use xlink:href="#mb6d18eb0cf" x="264.851875" y="313.39375" style="stroke: #000000; stroke-width: 0.8"/>
      </g>
     </g>
     <g id="text_5">
      <!-- 200 -->
      <g transform="translate(256.40875 328.31375) scale(0.12 -0.12)">
       <defs>
        <path id="STSong-32" d="M 2726 -19 
Q 2266 0 1421 0 
Q 595 0 141 -19 
Q 262 230 448 454 
Q 634 678 1043 1088 
Q 1638 1683 1913 2102 
Q 2189 2522 2189 2950 
Q 2189 3302 1968 3520 
Q 1747 3738 1421 3738 
Q 1101 3738 838 3517 
Q 576 3296 474 2893 
L 326 2918 
Q 429 3462 755 3763 
Q 1082 4064 1549 4064 
Q 2016 4064 2342 3753 
Q 2669 3443 2669 3008 
Q 2669 2573 2365 2192 
Q 2061 1811 1446 1242 
Q 1120 941 634 339 
L 2138 339 
Q 2381 339 2480 425 
Q 2579 512 2688 800 
L 2822 800 
L 2726 -19 
z
" transform="scale(0.015625)"/>
       </defs>
       <use xlink:href="#STSong-32"/>
       <use xlink:href="#STSong-30" x="46.899994"/>
       <use xlink:href="#STSong-30" x="93.799988"/>
      </g>
     </g>
    </g>
    <g id="xtick_6">
     <g id="line2d_6">
      <g>
       <use xlink:href="#mb6d18eb0cf" x="319.272656" y="313.39375" style="stroke: #000000; stroke-width: 0.8"/>
      </g>
     </g>
     <g id="text_6">
      <!-- 250 -->
      <g transform="translate(310.829531 328.31375) scale(0.12 -0.12)">
       <use xlink:href="#STSong-32"/>
       <use xlink:href="#STSong-35" x="46.899994"/>
       <use xlink:href="#STSong-30" x="93.799988"/>
      </g>
     </g>
    </g>
    <g id="xtick_7">
     <g id="line2d_7">
      <g>
       <use xlink:href="#mb6d18eb0cf" x="373.693438" y="313.39375" style="stroke: #000000; stroke-width: 0.8"/>
      </g>
     </g>
     <g id="text_7">
      <!-- 300 -->
      <g transform="translate(365.250313 328.31375) scale(0.12 -0.12)">
       <defs>
        <path id="STSong-33" d="M 602 3130 
L 486 3194 
Q 672 3635 934 3849 
Q 1197 4064 1594 4064 
Q 1952 4064 2195 3859 
Q 2438 3654 2438 3405 
Q 2438 3155 2268 2931 
Q 2099 2707 1741 2438 
Q 2208 2470 2489 2163 
Q 2771 1856 2771 1376 
Q 2771 755 2329 326 
Q 1888 -102 1203 -102 
Q 762 -102 531 3 
Q 301 109 301 250 
Q 301 314 361 368 
Q 422 422 493 422 
Q 602 422 742 307 
Q 1101 38 1350 38 
Q 1741 38 2038 377 
Q 2336 717 2336 1203 
Q 2336 1613 2134 1878 
Q 1933 2144 1626 2144 
Q 1389 2144 1139 1926 
L 1069 2048 
Q 1197 2163 1350 2278 
Q 2054 2797 2054 3155 
Q 2054 3418 1878 3578 
Q 1702 3738 1440 3738 
Q 1184 3738 957 3581 
Q 730 3424 602 3130 
z
" transform="scale(0.015625)"/>
       </defs>
       <use xlink:href="#STSong-33"/>
       <use xlink:href="#STSong-30" x="46.899994"/>
       <use xlink:href="#STSong-30" x="93.799988"/>
      </g>
     </g>
    </g>
    <g id="xtick_8">
     <g id="line2d_8">
      <g>
       <use xlink:href="#mb6d18eb0cf" x="428.114219" y="313.39375" style="stroke: #000000; stroke-width: 0.8"/>
      </g>
     </g>
     <g id="text_8">
      <!-- 350 -->
      <g transform="translate(419.671094 328.31375) scale(0.12 -0.12)">
       <use xlink:href="#STSong-33"/>
       <use xlink:href="#STSong-35" x="46.899994"/>
       <use xlink:href="#STSong-30" x="93.799988"/>
      </g>
     </g>
    </g>
    <g id="xtick_9">
     <g id="line2d_9">
      <g>
       <use xlink:href="#mb6d18eb0cf" x="482.535" y="313.39375" style="stroke: #000000; stroke-width: 0.8"/>
      </g>
     </g>
     <g id="text_9">
      <!-- 400 -->
      <g transform="translate(474.091875 328.31375) scale(0.12 -0.12)">
       <defs>
        <path id="STSong-34" d="M 2086 4064 
L 2240 4064 
L 2240 1408 
L 2918 1408 
L 2918 1114 
L 2240 1114 
L 2240 -102 
L 1818 -102 
L 1818 1114 
L 179 1114 
L 179 1325 
L 941 2438 
L 2086 4064 
z
M 1818 1408 
L 1818 3373 
Q 947 2163 486 1408 
L 1818 1408 
z
" transform="scale(0.015625)"/>
       </defs>
       <use xlink:href="#STSong-34"/>
       <use xlink:href="#STSong-30" x="46.899994"/>
       <use xlink:href="#STSong-30" x="93.799988"/>
      </g>
     </g>
    </g>
    <g id="text_10">
     <!-- 时间 -->
     <g transform="translate(252.851875 343.618125) scale(0.12 -0.12)">
      <defs>
       <path id="STSong-65f6" d="M 6093 3238 
Q 6144 3181 6144 3161 
Q 6144 3142 6061 3142 
L 5082 3142 
L 5082 -384 
Q 5082 -646 5046 -739 
Q 5011 -832 4803 -937 
Q 4595 -1043 4550 -1043 
Q 4506 -1043 4493 -992 
Q 4454 -806 4281 -697 
Q 4109 -589 3565 -448 
L 3584 -346 
Q 4186 -480 4406 -480 
Q 4627 -480 4707 -435 
Q 4787 -390 4787 -282 
L 4787 3142 
L 3232 3142 
Q 3053 3142 2854 3098 
L 2624 3309 
Q 2835 3283 3091 3283 
L 4787 3283 
L 4787 3962 
Q 4787 4742 4774 4890 
L 5229 4659 
Q 5299 4621 5299 4598 
Q 5299 4576 5229 4538 
L 5082 4454 
L 5082 3283 
L 5485 3283 
L 5715 3642 
L 6093 3238 
z
M 2618 4038 
L 2406 3891 
L 2406 1216 
Q 2406 698 2416 486 
Q 2426 275 2426 250 
Q 2426 166 2301 76 
Q 2176 -13 2147 -13 
Q 2118 -13 2118 115 
L 2118 410 
L 890 410 
L 890 -134 
Q 890 -192 867 -214 
Q 845 -237 752 -297 
Q 659 -358 620 -358 
Q 582 -358 582 -262 
Q 582 -166 592 198 
Q 602 563 602 1190 
L 602 3738 
Q 602 4147 582 4454 
L 966 4173 
L 2054 4173 
L 2221 4403 
L 2618 4147 
Q 2669 4109 2669 4089 
Q 2669 4070 2618 4038 
z
M 2118 2464 
L 2118 4032 
L 890 4032 
L 890 2464 
L 2118 2464 
z
M 2118 550 
L 2118 2323 
L 890 2323 
L 890 550 
L 2118 550 
z
M 3187 2483 
Q 3706 2086 3843 1888 
Q 3981 1690 3981 1546 
Q 3981 1402 3913 1306 
Q 3846 1210 3769 1210 
Q 3693 1210 3657 1267 
Q 3622 1325 3584 1510 
Q 3488 1997 3123 2432 
L 3187 2483 
z
" transform="scale(0.015625)"/>
       <path id="STSong-95f4" d="M 1152 4960 
Q 1766 4678 1910 4531 
Q 2054 4384 2054 4243 
Q 2054 4102 1990 4000 
Q 1926 3898 1865 3898 
Q 1805 3898 1757 3952 
Q 1709 4006 1696 4108 
Q 1683 4211 1532 4432 
Q 1382 4653 1114 4902 
L 1152 4960 
z
M 5875 4218 
L 5670 4096 
L 5670 -262 
Q 5670 -563 5625 -700 
Q 5581 -838 5389 -953 
Q 5197 -1069 5101 -1069 
Q 5069 -1069 5056 -1011 
Q 5018 -864 4867 -768 
Q 4717 -672 4282 -550 
L 4288 -461 
Q 4883 -550 5075 -550 
Q 5267 -550 5318 -502 
Q 5370 -454 5370 -326 
L 5370 4192 
L 3136 4192 
Q 2886 4192 2707 4122 
L 2528 4358 
Q 2835 4333 2995 4333 
L 5235 4333 
L 5504 4685 
L 5875 4307 
Q 5907 4275 5907 4256 
Q 5907 4237 5875 4218 
z
M 1286 3750 
L 1120 3648 
L 1120 365 
Q 1120 -294 1126 -486 
L 1133 -832 
Q 1133 -934 1001 -995 
Q 870 -1056 828 -1056 
Q 787 -1056 787 -941 
L 806 -442 
Q 819 -141 819 378 
L 819 3149 
Q 819 3578 794 4090 
L 1280 3846 
Q 1331 3821 1331 3801 
Q 1331 3782 1286 3750 
z
M 4493 2925 
L 4346 2829 
L 4346 973 
Q 4346 659 4358 474 
L 4384 160 
Q 4384 58 4253 6 
Q 4122 -45 4083 -45 
Q 4045 -45 4045 38 
L 4045 333 
L 2330 333 
L 2330 58 
Q 2330 -45 2211 -93 
Q 2093 -141 2048 -141 
Q 2003 -141 2003 -19 
L 2016 326 
Q 2029 544 2029 851 
L 2029 2714 
Q 2029 3059 2010 3373 
L 2413 3072 
L 3962 3072 
L 4160 3322 
L 4493 3053 
Q 4544 3008 4544 2982 
Q 4544 2957 4493 2925 
z
M 4045 1824 
L 4045 2931 
L 2330 2931 
L 2330 1824 
L 4045 1824 
z
M 4045 474 
L 4045 1683 
L 2330 1683 
L 2330 474 
L 4045 474 
z
" transform="scale(0.015625)"/>
      </defs>
      <use xlink:href="#STSong-65f6"/>
      <use xlink:href="#STSong-95f4" x="99.999985"/>
     </g>
    </g>
   </g>
   <g id="matplotlib.axis_2">
    <g id="ytick_1">
     <g id="line2d_10">
      <path d="M 47.16875 287.705012 
L 482.535 287.705012 
" clip-path="url(#pd8d3db571e)" style="fill: none; stroke-dasharray: 2.96,1.28; stroke-dashoffset: 0; stroke: #b0b0b0; stroke-opacity: 0.7; stroke-width: 0.8"/>
     </g>
     <g id="line2d_11">
      <defs>
       <path id="m4c61a9b75e" d="M 0 0 
L -3.5 0 
" style="stroke: #000000; stroke-width: 0.8"/>
      </defs>
      <g>
       <use xlink:href="#m4c61a9b75e" x="47.16875" y="287.705012" style="stroke: #000000; stroke-width: 0.8"/>
      </g>
     </g>
     <g id="text_11">
      <!-- 30 -->
      <g transform="translate(28.91125 291.665012) scale(0.12 -0.12)">
       <use xlink:href="#STSong-33"/>
       <use xlink:href="#STSong-30" x="46.899994"/>
      </g>
     </g>
    </g>
    <g id="ytick_2">
     <g id="line2d_12">
      <path d="M 47.16875 242.578665 
L 482.535 242.578665 
" clip-path="url(#pd8d3db571e)" style="fill: none; stroke-dasharray: 2.96,1.28; stroke-dashoffset: 0; stroke: #b0b0b0; stroke-opacity: 0.7; stroke-width: 0.8"/>
     </g>
     <g id="line2d_13">
      <g>
       <use xlink:href="#m4c61a9b75e" x="47.16875" y="242.578665" style="stroke: #000000; stroke-width: 0.8"/>
      </g>
     </g>
     <g id="text_12">
      <!-- 40 -->
      <g transform="translate(28.91125 246.538665) scale(0.12 -0.12)">
       <use xlink:href="#STSong-34"/>
       <use xlink:href="#STSong-30" x="46.899994"/>
      </g>
     </g>
    </g>
    <g id="ytick_3">
     <g id="line2d_14">
      <path d="M 47.16875 197.452317 
L 482.535 197.452317 
" clip-path="url(#pd8d3db571e)" style="fill: none; stroke-dasharray: 2.96,1.28; stroke-dashoffset: 0; stroke: #b0b0b0; stroke-opacity: 0.7; stroke-width: 0.8"/>
     </g>
     <g id="line2d_15">
      <g>
       <use xlink:href="#m4c61a9b75e" x="47.16875" y="197.452317" style="stroke: #000000; stroke-width: 0.8"/>
      </g>
     </g>
     <g id="text_13">
      <!-- 50 -->
      <g transform="translate(28.91125 201.412317) scale(0.12 -0.12)">
       <use xlink:href="#STSong-35"/>
       <use xlink:href="#STSong-30" x="46.899994"/>
      </g>
     </g>
    </g>
    <g id="ytick_4">
     <g id="line2d_16">
      <path d="M 47.16875 152.325969 
L 482.535 152.325969 
" clip-path="url(#pd8d3db571e)" style="fill: none; stroke-dasharray: 2.96,1.28; stroke-dashoffset: 0; stroke: #b0b0b0; stroke-opacity: 0.7; stroke-width: 0.8"/>
     </g>
     <g id="line2d_17">
      <g>
       <use xlink:href="#m4c61a9b75e" x="47.16875" y="152.325969" style="stroke: #000000; stroke-width: 0.8"/>
      </g>
     </g>
     <g id="text_14">
      <!-- 60 -->
      <g transform="translate(28.91125 156.285969) scale(0.12 -0.12)">
       <defs>
        <path id="STSong-36" d="M 2458 4083 
L 2509 3962 
Q 1709 3661 1232 2934 
Q 755 2208 755 1376 
Q 755 826 985 432 
Q 1216 38 1549 38 
Q 2266 38 2266 1178 
Q 2266 1658 2080 1926 
Q 1894 2195 1613 2195 
Q 1504 2195 1402 2150 
L 1331 2253 
Q 1536 2342 1747 2342 
Q 2170 2342 2448 2022 
Q 2726 1702 2726 1146 
Q 2726 614 2396 256 
Q 2067 -102 1542 -102 
Q 998 -102 656 323 
Q 314 749 314 1478 
Q 314 2362 893 3088 
Q 1472 3814 2458 4083 
z
" transform="scale(0.015625)"/>
       </defs>
       <use xlink:href="#STSong-36"/>
       <use xlink:href="#STSong-30" x="46.899994"/>
      </g>
     </g>
    </g>
    <g id="ytick_5">
     <g id="line2d_18">
      <path d="M 47.16875 107.199622 
L 482.535 107.199622 
" clip-path="url(#pd8d3db571e)" style="fill: none; stroke-dasharray: 2.96,1.28; stroke-dashoffset: 0; stroke: #b0b0b0; stroke-opacity: 0.7; stroke-width: 0.8"/>
     </g>
     <g id="line2d_19">
      <g>
       <use xlink:href="#m4c61a9b75e" x="47.16875" y="107.199622" style="stroke: #000000; stroke-width: 0.8"/>
      </g>
     </g>
     <g id="text_15">
      <!-- 70 -->
      <g transform="translate(28.91125 111.159622) scale(0.12 -0.12)">
       <defs>
        <path id="STSong-37" d="M 294 4000 
L 2758 4000 
L 2758 3891 
Q 2541 3507 1981 1929 
Q 1421 352 1363 0 
L 1152 0 
Q 1459 1325 2387 3610 
L 659 3610 
Q 499 3610 486 3526 
L 435 3258 
L 294 3258 
L 294 4000 
z
" transform="scale(0.015625)"/>
       </defs>
       <use xlink:href="#STSong-37"/>
       <use xlink:href="#STSong-30" x="46.899994"/>
      </g>
     </g>
    </g>
    <g id="ytick_6">
     <g id="line2d_20">
      <path d="M 47.16875 62.073274 
L 482.535 62.073274 
" clip-path="url(#pd8d3db571e)" style="fill: none; stroke-dasharray: 2.96,1.28; stroke-dashoffset: 0; stroke: #b0b0b0; stroke-opacity: 0.7; stroke-width: 0.8"/>
     </g>
     <g id="line2d_21">
      <g>
       <use xlink:href="#m4c61a9b75e" x="47.16875" y="62.073274" style="stroke: #000000; stroke-width: 0.8"/>
      </g>
     </g>
     <g id="text_16">
      <!-- 80 -->
      <g transform="translate(28.91125 66.033274) scale(0.12 -0.12)">
       <defs>
        <path id="STSong-38" d="M 1267 1997 
Q 493 2381 493 3040 
Q 493 3437 809 3750 
Q 1126 4064 1555 4064 
Q 2042 4064 2342 3801 
Q 2643 3539 2643 3142 
Q 2643 2797 2451 2585 
Q 2259 2374 1901 2195 
Q 2490 1914 2656 1626 
Q 2822 1338 2822 1050 
Q 2822 582 2473 240 
Q 2125 -102 1606 -102 
Q 1069 -102 749 195 
Q 429 493 429 947 
Q 429 1222 557 1488 
Q 685 1754 1267 1997 
z
M 1760 2272 
Q 2022 2394 2163 2627 
Q 2304 2861 2304 3136 
Q 2304 3475 2109 3696 
Q 1914 3917 1568 3917 
Q 1254 3917 1056 3702 
Q 858 3488 858 3174 
Q 858 3014 915 2860 
Q 973 2707 1232 2528 
Q 1491 2349 1760 2272 
z
M 1421 1926 
Q 1094 1766 953 1532 
Q 813 1299 813 909 
Q 813 518 1037 284 
Q 1261 51 1600 51 
Q 1952 51 2185 284 
Q 2419 518 2419 883 
Q 2419 1267 2185 1497 
Q 1952 1728 1421 1926 
z
" transform="scale(0.015625)"/>
       </defs>
       <use xlink:href="#STSong-38"/>
       <use xlink:href="#STSong-30" x="46.899994"/>
      </g>
     </g>
    </g>
    <g id="ytick_7">
     <g id="line2d_22">
      <path d="M 47.16875 16.946926 
L 482.535 16.946926 
" clip-path="url(#pd8d3db571e)" style="fill: none; stroke-dasharray: 2.96,1.28; stroke-dashoffset: 0; stroke: #b0b0b0; stroke-opacity: 0.7; stroke-width: 0.8"/>
     </g>
     <g id="line2d_23">
      <g>
       <use xlink:href="#m4c61a9b75e" x="47.16875" y="16.946926" style="stroke: #000000; stroke-width: 0.8"/>
      </g>
     </g>
     <g id="text_17">
      <!-- 90 -->
      <g transform="translate(28.91125 20.906926) scale(0.12 -0.12)">
       <defs>
        <path id="STSong-39" d="M 1677 1651 
Q 1498 1555 1299 1555 
Q 890 1555 586 1910 
Q 282 2266 282 2790 
Q 282 3328 627 3696 
Q 973 4064 1466 4064 
Q 2022 4064 2361 3622 
Q 2701 3181 2701 2477 
Q 2701 1485 2096 749 
Q 1491 13 544 -122 
L 518 19 
Q 1331 179 1788 857 
Q 2246 1536 2246 2534 
Q 2246 3200 2022 3561 
Q 1798 3923 1414 3923 
Q 1120 3923 934 3596 
Q 749 3270 749 2733 
Q 749 2291 928 2022 
Q 1107 1754 1402 1754 
Q 1504 1754 1619 1786 
L 1677 1651 
z
" transform="scale(0.015625)"/>
       </defs>
       <use xlink:href="#STSong-39"/>
       <use xlink:href="#STSong-30" x="46.899994"/>
      </g>
     </g>
    </g>
    <g id="text_18">
     <!-- 分类准确率 -->
     <g transform="translate(21.826875 194.966987) rotate(-90) scale(0.12 -0.12)">
      <defs>
       <path id="STSong-5206" d="M 6208 2176 
L 6195 2112 
Q 5702 2131 5549 1933 
Q 5530 1907 5510 1907 
Q 5466 1907 5040 2326 
Q 4614 2746 4310 3325 
Q 4006 3904 3770 4934 
L 4243 4781 
Q 4314 4762 4314 4739 
Q 4314 4717 4262 4672 
L 4102 4531 
Q 4237 3712 4816 3056 
Q 5395 2400 6208 2176 
z
M 2944 4563 
Q 3002 4538 3002 4512 
Q 3002 4486 2925 4474 
Q 2726 4429 2637 4294 
Q 2003 3302 1433 2681 
Q 864 2061 243 1638 
L 192 1722 
Q 896 2317 1494 3158 
Q 2093 4000 2406 4826 
L 2944 4563 
z
M 4781 2080 
L 4563 1933 
Q 4563 1261 4515 749 
Q 4467 237 4422 -44 
Q 4378 -326 4272 -502 
Q 4166 -678 3974 -809 
Q 3782 -941 3747 -941 
Q 3712 -941 3699 -890 
Q 3661 -742 3593 -652 
Q 3526 -563 3350 -483 
Q 3174 -403 2810 -301 
L 2848 -211 
Q 3405 -333 3677 -333 
Q 3949 -333 4057 -169 
Q 4166 -6 4204 643 
Q 4243 1293 4243 2042 
L 2746 2042 
Q 2650 691 2157 41 
Q 1664 -608 410 -1069 
L 378 -973 
Q 1440 -474 1894 153 
Q 2349 781 2406 2042 
L 1696 2042 
Q 1446 2042 1267 1971 
L 1088 2208 
Q 1395 2182 1555 2182 
L 4102 2182 
L 4358 2554 
L 4781 2195 
Q 4832 2157 4832 2134 
Q 4832 2112 4781 2080 
z
" transform="scale(0.015625)"/>
       <path id="STSong-7c7b" d="M 3078 2861 
Q 1965 2035 352 1542 
L 307 1626 
Q 1037 1914 1805 2358 
Q 2573 2803 3085 3245 
L 3085 3270 
L 960 3270 
Q 794 3270 531 3200 
L 352 3437 
Q 698 3411 819 3411 
L 3085 3411 
L 3085 4032 
Q 3085 4461 3059 4966 
L 3533 4710 
Q 3571 4691 3571 4668 
Q 3571 4646 3533 4621 
L 3379 4512 
L 3379 3411 
L 4019 3411 
Q 4442 4032 4774 4634 
L 5152 4403 
Q 5203 4371 5203 4352 
Q 5203 4333 5116 4313 
Q 5030 4294 4976 4262 
Q 4922 4230 4691 3994 
L 4134 3411 
L 5280 3411 
L 5587 3770 
L 5997 3360 
Q 6042 3315 6042 3292 
Q 6042 3270 5971 3270 
L 3379 3270 
L 3379 2835 
Q 5146 2502 5482 2332 
Q 5818 2163 5818 1939 
Q 5818 1862 5770 1801 
Q 5722 1741 5664 1741 
Q 5606 1741 5411 1878 
Q 5216 2016 4637 2272 
Q 4058 2528 3379 2752 
Q 3379 2438 3392 2204 
Q 3405 1971 3405 1916 
Q 3405 1862 3366 1830 
Q 3328 1798 3229 1760 
Q 3130 1722 3085 1722 
Q 3040 1722 3040 1798 
L 3059 2182 
Q 3072 2426 3078 2861 
z
M 1203 4621 
Q 1485 4531 1744 4371 
Q 2003 4211 2096 4099 
Q 2189 3987 2189 3872 
Q 2189 3757 2121 3667 
Q 2054 3578 1980 3578 
Q 1907 3578 1846 3760 
Q 1786 3942 1606 4163 
Q 1427 4384 1165 4570 
L 1203 4621 
z
M 6259 -806 
Q 6054 -806 5916 -870 
Q 5779 -934 5683 -1088 
Q 5664 -1126 5632 -1126 
Q 5562 -1126 5187 -956 
Q 4813 -787 4441 -508 
Q 4070 -230 3763 131 
Q 3456 493 3238 922 
L 3187 922 
Q 3059 474 2876 195 
Q 2694 -83 2326 -339 
Q 1958 -595 1347 -822 
Q 736 -1050 205 -1139 
L 173 -1062 
Q 736 -922 1405 -605 
Q 2074 -288 2403 48 
Q 2733 384 2867 922 
L 1171 922 
Q 979 922 742 851 
L 563 1088 
Q 883 1062 1030 1062 
L 2906 1062 
Q 2963 1299 2995 1626 
L 3411 1466 
Q 3450 1453 3450 1424 
Q 3450 1395 3405 1370 
Q 3277 1293 3226 1062 
L 5082 1062 
L 5357 1402 
L 5773 1018 
Q 5818 973 5818 947 
Q 5818 922 5747 922 
L 3341 922 
Q 3808 179 4585 -259 
Q 5363 -698 6259 -710 
L 6259 -806 
z
" transform="scale(0.015625)"/>
       <path id="STSong-51c6" d="M 4058 4877 
Q 4742 4499 4742 4141 
Q 4742 4006 4665 3910 
Q 4589 3814 4518 3814 
Q 4448 3814 4425 3846 
Q 4403 3878 4387 4025 
Q 4371 4173 4262 4416 
Q 4154 4659 4000 4806 
L 4058 4877 
z
M 6086 -198 
Q 6131 -256 6131 -275 
Q 6131 -294 6054 -294 
L 2931 -294 
L 2944 -768 
Q 2944 -826 2921 -854 
Q 2899 -883 2800 -928 
Q 2701 -973 2656 -973 
Q 2611 -973 2611 -893 
Q 2611 -813 2627 -592 
Q 2643 -371 2643 288 
L 2643 3021 
Q 2253 2272 1722 1606 
L 1638 1664 
Q 2586 3098 3091 4845 
L 3469 4640 
Q 3546 4595 3546 4572 
Q 3546 4550 3482 4518 
Q 3296 4429 3261 4329 
Q 3226 4230 2976 3693 
L 5286 3693 
L 5581 4058 
L 5965 3642 
Q 6010 3590 6010 3568 
Q 6010 3546 5926 3546 
L 4429 3546 
L 4429 2522 
L 5197 2522 
L 5498 2867 
L 5843 2464 
Q 5882 2419 5882 2396 
Q 5882 2374 5779 2374 
L 4429 2374 
L 4429 1242 
L 5229 1242 
L 5517 1613 
L 5882 1171 
Q 5907 1139 5907 1116 
Q 5907 1094 5830 1094 
L 4429 1094 
L 4429 -147 
L 5376 -147 
L 5702 262 
L 6086 -198 
z
M 4134 2522 
L 4134 3546 
L 2931 3546 
L 2931 2522 
L 4134 2522 
z
M 4134 1242 
L 4134 2374 
L 2931 2374 
L 2931 1242 
L 4134 1242 
z
M 4134 -147 
L 4134 1094 
L 2931 1094 
L 2931 -147 
L 4134 -147 
z
M 602 4467 
Q 954 4294 1200 4102 
Q 1446 3910 1494 3772 
Q 1542 3635 1542 3516 
Q 1542 3398 1484 3321 
Q 1427 3245 1350 3245 
Q 1274 3245 1238 3296 
Q 1203 3347 1158 3523 
Q 1114 3699 960 3936 
Q 806 4173 557 4390 
L 602 4467 
z
M 2221 4173 
Q 1389 1875 1305 1558 
Q 1222 1242 1222 915 
Q 1222 589 1260 320 
Q 1299 51 1299 -58 
Q 1299 -467 1043 -467 
Q 883 -467 883 -134 
Q 883 32 921 272 
Q 960 512 960 733 
Q 960 954 870 1075 
Q 781 1197 282 1274 
L 288 1363 
Q 602 1363 739 1398 
Q 877 1434 963 1542 
Q 1050 1651 1165 1933 
L 2125 4211 
L 2221 4173 
z
" transform="scale(0.015625)"/>
       <path id="STSong-786e" d="M 5997 3040 
Q 6029 3014 6029 2992 
Q 6029 2970 5990 2950 
L 5798 2854 
L 5798 -326 
Q 5798 -627 5763 -732 
Q 5728 -838 5565 -931 
Q 5402 -1024 5363 -1024 
Q 5325 -1024 5312 -973 
Q 5274 -826 5149 -723 
Q 5024 -621 4691 -518 
L 4704 -422 
Q 5210 -518 5331 -518 
Q 5453 -518 5478 -486 
Q 5504 -454 5504 -365 
L 5504 934 
L 4563 934 
L 4563 262 
Q 4563 -77 4570 -198 
L 4576 -416 
Q 4576 -499 4445 -566 
Q 4314 -634 4282 -634 
Q 4250 -634 4250 -586 
Q 4250 -538 4259 -346 
Q 4269 -154 4269 237 
L 4269 934 
L 3398 934 
Q 3366 211 3030 -262 
Q 2694 -736 1939 -1126 
L 1894 -1030 
Q 2336 -736 2582 -467 
Q 2829 -198 2953 150 
Q 3078 499 3110 918 
Q 3142 1338 3142 2115 
Q 3142 2893 3136 3245 
Q 2861 2931 2560 2669 
L 2496 2733 
Q 3488 3930 3962 4998 
L 4365 4672 
Q 4397 4646 4397 4624 
Q 4397 4602 4342 4592 
Q 4288 4582 4211 4547 
Q 4134 4512 4083 4442 
L 3827 4109 
L 4870 4109 
L 5120 4352 
L 5459 3981 
Q 5498 3936 5498 3920 
Q 5498 3904 5434 3891 
Q 5229 3866 4995 3645 
Q 4762 3424 4486 3085 
L 5402 3085 
L 5600 3360 
L 5997 3040 
z
M 4896 3974 
L 3731 3974 
Q 3450 3610 3213 3328 
L 3482 3085 
L 4326 3085 
L 4896 3974 
z
M 5504 2074 
L 5504 2944 
L 4563 2944 
L 4563 2074 
L 5504 2074 
z
M 4269 2074 
L 4269 2944 
L 3443 2944 
L 3424 2074 
L 4269 2074 
z
M 5504 1075 
L 5504 1933 
L 4563 1933 
L 4563 1075 
L 5504 1075 
z
M 4269 1075 
L 4269 1933 
L 3424 1933 
L 3398 1075 
L 4269 1075 
z
M 2970 4051 
Q 3014 4006 3014 3987 
Q 3014 3968 2944 3968 
L 1805 3968 
Q 1600 3213 1395 2726 
L 1395 2554 
L 2061 2554 
L 2240 2822 
L 2605 2509 
Q 2643 2477 2643 2457 
Q 2643 2438 2611 2419 
L 2451 2323 
L 2451 928 
Q 2451 602 2464 422 
L 2490 109 
Q 2490 26 2368 -35 
Q 2246 -96 2204 -96 
Q 2163 -96 2163 -6 
L 2163 384 
L 1395 384 
L 1395 -243 
Q 1395 -314 1369 -342 
Q 1344 -371 1261 -406 
Q 1178 -442 1133 -442 
Q 1088 -442 1088 -333 
L 1107 13 
Q 1114 224 1114 518 
L 1114 2118 
Q 806 1491 390 966 
L 326 1024 
Q 1152 2362 1434 3968 
L 954 3968 
Q 704 3968 525 3898 
L 346 4134 
Q 653 4109 813 4109 
L 2278 4109 
L 2560 4461 
L 2970 4051 
z
M 2163 525 
L 2163 2413 
L 1395 2413 
L 1395 525 
L 2163 525 
z
" transform="scale(0.015625)"/>
       <path id="STSong-7387" d="M 2746 4954 
Q 3302 4774 3427 4636 
Q 3552 4499 3552 4377 
Q 3552 4256 3478 4182 
Q 3405 4109 3318 4109 
Q 3232 4109 3200 4211 
Q 3040 4640 2701 4890 
L 2746 4954 
z
M 5901 4051 
Q 5939 4006 5939 3984 
Q 5939 3962 5869 3962 
L 3104 3962 
L 3392 3814 
Q 3437 3789 3437 3776 
Q 3437 3763 3353 3750 
Q 3270 3738 2982 3526 
Q 2694 3315 2291 2925 
L 3430 2970 
Q 3795 3411 3853 3514 
L 4218 3277 
Q 4269 3245 4269 3219 
Q 4269 3194 4179 3174 
Q 4000 3123 3834 2976 
Q 3200 2400 2445 1798 
L 4019 1901 
Q 3866 2163 3629 2349 
L 3667 2426 
Q 4499 2061 4499 1702 
Q 4499 1594 4432 1485 
Q 4365 1376 4313 1376 
Q 4262 1376 4224 1421 
Q 4186 1466 4157 1574 
Q 4128 1683 4070 1805 
L 2950 1645 
Q 2451 1581 2349 1485 
Q 2323 1466 2300 1466 
Q 2278 1466 2253 1504 
L 2035 1818 
Q 2534 1926 3322 2842 
L 2656 2765 
Q 2400 2733 2320 2691 
Q 2240 2650 2208 2650 
Q 2176 2650 2150 2682 
L 1926 2957 
Q 2394 3091 2944 3962 
L 1126 3962 
Q 877 3962 698 3891 
L 518 4128 
Q 826 4102 986 4102 
L 5178 4102 
L 5472 4518 
L 5901 4051 
z
M 5574 3482 
Q 5619 3456 5619 3437 
Q 5619 3418 5516 3408 
Q 5414 3398 5228 3283 
Q 5043 3168 4416 2688 
L 4339 2758 
Q 4813 3245 5178 3712 
L 5574 3482 
z
M 742 3610 
Q 1075 3507 1392 3286 
Q 1709 3066 1709 2886 
Q 1709 2784 1635 2691 
Q 1562 2598 1491 2598 
Q 1421 2598 1382 2755 
Q 1344 2912 1158 3142 
Q 973 3373 717 3546 
L 742 3610 
z
M 4608 2515 
Q 5011 2374 5235 2236 
Q 5459 2099 5513 1996 
Q 5568 1894 5568 1782 
Q 5568 1670 5510 1590 
Q 5453 1510 5382 1510 
Q 5312 1510 5248 1696 
Q 5107 2099 4576 2451 
L 4608 2515 
z
M 2074 2298 
Q 1363 1824 1174 1677 
Q 986 1530 931 1443 
Q 877 1357 851 1357 
Q 826 1357 806 1376 
L 506 1626 
L 2003 2381 
L 2074 2298 
z
M 6138 685 
Q 6176 646 6176 627 
Q 6176 608 6118 608 
L 3334 608 
L 3334 -506 
Q 3334 -685 3341 -762 
L 3347 -902 
Q 3347 -966 3219 -1024 
Q 3091 -1082 3049 -1082 
Q 3008 -1082 3008 -1018 
L 3021 -774 
Q 3034 -621 3034 -499 
L 3034 608 
L 800 608 
Q 550 608 371 538 
L 192 774 
Q 499 749 659 749 
L 3034 749 
L 3034 998 
Q 3034 1235 3014 1549 
L 3494 1338 
Q 3539 1318 3539 1299 
Q 3539 1280 3501 1248 
L 3334 1101 
L 3334 749 
L 5395 749 
L 5690 1152 
L 6138 685 
z
" transform="scale(0.015625)"/>
      </defs>
      <use xlink:href="#STSong-5206"/>
      <use xlink:href="#STSong-7c7b" x="99.999985"/>
      <use xlink:href="#STSong-51c6" x="199.999969"/>
      <use xlink:href="#STSong-786e" x="299.999954"/>
      <use xlink:href="#STSong-7387" x="399.999939"/>
     </g>
    </g>
   </g>
   <g id="line2d_24">
    <path d="M 49.345581 299.900408 
L 52.610828 220.15087 
L 54.787659 162.408888 
L 58.052906 146.434161 
L 60.229738 114.628547 
L 63.494984 110.682812 
L 65.671816 108.702893 
L 68.937063 116.42796 
L 71.113894 89.06165 
L 74.379141 85.248474 
L 76.555972 82.696015 
L 79.821219 78.693872 
L 81.99805 74.333538 
L 85.263297 74.367383 
L 87.440128 74.181237 
L 90.705375 71.823385 
L 92.882206 66.332073 
L 96.147453 66.261563 
L 98.324284 66.346175 
L 101.589531 67.694325 
L 103.766363 62.132502 
L 107.031609 63.559623 
L 109.208441 60.152584 
L 112.473688 72.119527 
L 114.650519 61.574064 
L 117.915766 62.40326 
L 120.092597 60.730765 
L 123.357844 61.686879 
L 125.534675 54.994078 
L 128.799922 57.571921 
L 130.976753 59.506713 
L 134.242 61.218694 
L 136.418831 57.374493 
L 139.684078 53.755924 
L 141.860909 56.519913 
L 145.126156 54.212828 
L 147.302988 53.521831 
L 150.568234 50.712716 
L 152.745066 52.168041 
L 156.010313 53.183383 
L 158.187144 52.080608 
L 161.452391 51.288077 
L 163.629222 51.420635 
L 166.894469 47.556692 
L 169.0713 50.53221 
L 172.336547 52.909805 
L 174.513378 50.856556 
L 177.778625 48.715875 
L 179.955456 51.620884 
L 183.220703 49.288415 
L 185.397534 49.714295 
L 188.662781 48.027698 
L 190.839613 49.313799 
L 194.104859 48.295636 
L 196.281691 48.033339 
L 199.546938 49.415333 
L 201.723769 47.740018 
L 204.989016 46.930564 
L 207.165847 47.435415 
L 210.431094 45.325758 
L 212.607925 46.276232 
L 215.873172 47.869756 
L 218.050003 44.713732 
L 221.31525 47.150555 
L 223.492081 45.117049 
L 226.757328 44.239905 
L 228.934159 44.750397 
L 232.199406 45.520365 
L 234.376238 44.736295 
L 237.641484 46.101367 
L 239.818316 48.081286 
L 243.083563 43.608136 
L 245.260394 45.472419 
L 248.525641 46.138032 
L 250.702472 45.145253 
L 253.967719 42.953804 
L 256.14455 44.239905 
L 259.409797 43.382505 
L 261.586628 46.073163 
L 264.851875 49.113551 
L 267.028706 45.751638 
L 270.293953 44.959106 
L 272.470784 47.432594 
L 275.736031 45.060641 
L 277.912863 46.171877 
L 281.178109 43.128669 
L 283.354941 46.087265 
L 286.620188 46.287513 
L 288.797019 40.017771 
L 292.062266 41.633859 
L 294.239097 44.677067 
L 297.504344 48.39435 
L 299.681175 44.564251 
L 302.946422 43.91838 
L 305.123253 42.200758 
L 308.3885 41.447713 
L 310.565331 43.368403 
L 313.830578 41.563349 
L 316.007409 44.397848 
L 319.272656 42.668944 
" clip-path="url(#pd8d3db571e)" style="fill: none; stroke: #1f77b4; stroke-width: 1.5; stroke-linecap: square"/>
   </g>
   <g id="line2d_25">
    <path d="M 51.522413 269.908309 
L 56.964491 192.42637 
L 61.318153 150.543479 
L 66.760231 127.368279 
L 71.113894 107.721395 
L 76.555972 97.209776 
L 80.909634 97.384641 
L 86.351713 86.588162 
L 90.705375 92.708423 
L 96.147453 84.667472 
L 100.501116 77.709553 
L 105.943194 71.49904 
L 110.296856 67.908675 
L 115.738934 66.323612 
L 120.092597 73.696129 
L 125.534675 67.152808 
L 129.888338 69.420407 
L 135.330416 65.017768 
L 139.684078 64.699063 
L 145.126156 63.68372 
L 149.479819 59.972078 
L 154.921897 61.351252 
L 159.275559 61.275102 
L 164.717638 63.872687 
L 169.0713 59.48415 
L 174.513378 84.709778 
L 178.867041 55.324064 
L 184.309119 59.754908 
L 188.662781 53.547215 
L 194.104859 53.287738 
L 198.458522 56.593243 
L 203.9006 56.438121 
L 208.254263 54.915107 
L 213.696341 51.068086 
L 218.050003 52.718018 
L 223.492081 51.073727 
L 227.845744 52.73212 
L 233.287822 49.215085 
L 237.641484 52.692634 
L 243.083563 52.579818 
L 247.437225 52.325983 
L 252.879303 48.208204 
L 257.232966 47.001074 
L 262.675044 44.674246 
L 267.028706 44.767319 
L 272.470784 47.638483 
L 276.824447 47.125171 
L 282.266525 51.553194 
L 286.620188 54.745883 
L 292.062266 46.62032 
L 296.415928 47.269011 
L 301.858006 47.020816 
L 306.211669 46.434174 
L 311.653747 46.730316 
L 316.007409 48.270252 
L 321.449488 45.678308 
L 325.80315 49.336362 
L 331.245228 44.513484 
L 335.598891 47.156196 
L 341.040969 43.940943 
L 345.394631 43.42199 
L 350.836709 44.375284 
L 355.190372 42.313574 
L 360.63245 50.31786 
L 364.986113 46.628781 
L 370.428191 42.451774 
L 374.781853 41.523863 
L 380.223931 43.125849 
L 384.577594 43.402247 
L 390.019672 42.505361 
L 394.373334 43.785821 
L 399.815413 41.625398 
L 404.169075 44.933723 
L 409.611153 48.055902 
L 413.964816 45.348321 
L 419.406894 44.897058 
L 423.760556 40.491598 
L 429.202634 39.834446 
L 433.556297 43.484039 
L 438.998375 44.237085 
L 443.352038 44.220163 
L 448.794116 44.725014 
L 453.147778 40.483137 
L 458.589856 42.00051 
L 462.943519 41.583092 
L 468.385597 42.093583 
L 472.739259 43.041237 
L 478.181338 45.791124 
L 482.535 42.556128 
L 487.977078 42.291011 
L 492.330741 43.582753 
L 497.772819 42.322036 
L 502.126481 41.588732 
L 505 41.414493 
" clip-path="url(#pd8d3db571e)" style="fill: none; stroke: #ff7f0e; stroke-width: 1.5; stroke-linecap: square"/>
   </g>
   <g id="line2d_26">
    <path d="M 51.522413 255.490441 
L 56.964491 172.477704 
L 61.318153 127.261104 
L 66.760231 102.503661 
L 71.113894 96.222637 
L 76.555972 91.69308 
L 80.909634 90.866704 
L 86.351713 79.686651 
L 90.705375 78.761561 
L 96.147453 73.298453 
L 100.501116 70.046535 
L 105.943194 68.055335 
L 110.296856 66.834104 
L 115.738934 60.606668 
L 120.092597 66.636676 
L 125.534675 59.495431 
L 129.888338 64.456509 
L 135.330416 58.037286 
L 139.684078 58.200869 
L 145.126156 65.872348 
L 149.479819 58.358811 
L 154.921897 53.313122 
L 159.275559 57.512692 
L 164.717638 56.037625 
L 169.0713 53.428758 
L 174.513378 55.479186 
L 178.867041 51.866258 
L 184.309119 54.65281 
L 188.662781 50.1712 
L 194.104859 48.560753 
L 198.458522 52.822373 
L 203.9006 52.608022 
L 208.254263 52.004458 
L 213.696341 46.752879 
L 218.050003 49.263032 
L 223.492081 48.563573 
L 227.845744 48.887919 
L 233.287822 51.587039 
L 237.641484 46.200081 
L 243.083563 52.568537 
L 247.437225 50.608361 
L 252.879303 46.468019 
L 257.232966 44.665785 
L 262.675044 43.537627 
L 267.028706 45.90676 
L 272.470784 49.090988 
L 276.824447 45.943425 
L 282.266525 46.157775 
L 286.620188 47.068763 
L 292.062266 48.030519 
L 296.415928 44.172216 
L 301.858006 45.376525 
L 306.211669 43.486859 
L 311.653747 45.283452 
L 316.007409 45.824968 
L 321.449488 41.35746 
L 325.80315 43.455835 
L 331.245228 40.077 
L 335.598891 46.185979 
L 341.040969 42.262807 
L 345.394631 42.169734 
L 350.836709 41.411047 
L 355.190372 39.972645 
L 360.63245 44.866033 
L 364.986113 42.71125 
L 370.428191 42.392545 
L 374.781853 38.480655 
L 380.223931 41.949743 
L 384.577594 44.000172 
L 390.019672 40.954143 
L 394.373334 42.195118 
L 399.815413 39.789319 
L 404.169075 43.252766 
L 409.611153 45.167816 
L 413.964816 40.643899 
L 419.406894 40.875172 
L 423.760556 39.459333 
L 429.202634 39.665222 
L 433.556297 40.494418 
L 438.998375 44.868854 
L 443.352038 43.763258 
L 448.794116 39.879572 
L 453.147778 38.864229 
L 458.589856 40.948502 
L 462.943519 40.254685 
L 468.385597 40.29135 
L 472.739259 39.030633 
L 478.181338 40.268787 
L 482.535 37.956061 
L 487.977078 39.473435 
L 492.330741 39.374721 
L 497.772819 40.93158 
L 502.126481 41.461815 
L 505 42.097712 
" clip-path="url(#pd8d3db571e)" style="fill: none; stroke: #2ca02c; stroke-width: 1.5; stroke-linecap: square"/>
   </g>
   <g id="line2d_27">
    <path d="M 51.522413 191.755116 
L 56.964491 135.234365 
L 61.318153 102.218801 
L 66.760231 92.595607 
L 71.113894 80.253551 
L 76.555972 81.291457 
L 80.909634 75.402469 
L 86.351713 74.70019 
L 90.705375 64.758292 
L 96.147453 68.08636 
L 100.501116 64.682141 
L 105.943194 56.576321 
L 110.296856 55.025102 
L 115.738934 54.260775 
L 120.092597 57.811654 
L 125.534675 57.650892 
L 129.888338 58.152922 
L 135.330416 56.821695 
L 139.684078 52.613663 
L 145.126156 54.689475 
L 149.479819 52.292138 
L 154.921897 50.867838 
L 159.275559 54.576659 
L 164.717638 54.351028 
L 169.0713 47.534129 
L 174.513378 50.391191 
L 178.867041 48.433835 
L 184.309119 52.266754 
L 188.662781 46.211363 
L 194.104859 50.323501 
L 198.458522 47.923343 
L 203.9006 49.443537 
L 208.254263 45.683948 
L 213.696341 41.862311 
L 218.050003 45.729075 
L 223.492081 44.256828 
L 227.845744 43.901458 
L 233.287822 43.842229 
L 237.641484 43.791462 
L 243.083563 43.131489 
L 247.437225 46.019576 
L 252.879303 42.305113 
L 257.232966 38.51732 
L 262.675044 41.396945 
L 267.028706 46.030857 
L 272.470784 45.320117 
L 276.824447 43.596855 
L 282.266525 43.261228 
L 286.620188 44.208881 
L 292.062266 43.120208 
L 296.415928 43.794283 
L 301.858006 44.753218 
L 306.211669 41.701548 
L 311.653747 39.820344 
L 316.007409 40.181354 
L 321.449488 44.293493 
L 325.80315 43.785821 
L 331.245228 41.176954 
L 335.598891 45.4837 
L 341.040969 37.795299 
L 345.394631 37.391982 
L 350.836709 38.638597 
L 355.190372 38.167591 
L 360.63245 38.948841 
L 364.986113 38.948841 
L 370.428191 36.658679 
L 374.781853 40.635438 
L 380.223931 39.772397 
L 384.577594 39.79778 
L 390.019672 37.366598 
L 394.373334 40.553647 
L 399.815413 38.689365 
L 404.169075 39.309852 
L 409.611153 41.918719 
L 413.964816 38.934739 
L 419.406894 39.481896 
L 423.760556 35.581287 
L 429.202634 35.113101 
L 433.556297 38.215538 
L 438.998375 38.807821 
L 443.352038 43.407888 
L 448.794116 38.170412 
L 453.147778 35.846405 
L 458.589856 36.678422 
L 462.943519 38.988327 
L 468.385597 38.407325 
L 472.739259 40.739793 
L 478.181338 41.272848 
L 482.535 35.065155 
L 487.977078 35.403602 
L 492.330741 39.885213 
L 497.772819 45.568312 
L 502.126481 39.329595 
L 505 37.207453 
" clip-path="url(#pd8d3db571e)" style="fill: none; stroke: #8c564b; stroke-width: 1.5; stroke-linecap: square"/>
   </g>
   <g id="line2d_28">
    <path d="M 58.052906 206.844238 
L 70.025478 138.951648 
L 80.909634 120.881366 
L 92.882206 97.173111 
L 103.766363 88.675256 
L 115.738934 80.087148 
L 126.623091 74.779161 
L 138.595663 73.383065 
L 149.479819 70.057817 
L 161.452391 72.892316 
L 172.336547 62.016866 
L 184.309119 64.904952 
L 195.193275 60.866144 
L 207.165847 56.708879 
L 218.050003 55.64841 
L 230.022575 56.28582 
L 240.906731 60.141302 
L 252.879303 59.926952 
L 263.763459 55.620206 
L 275.736031 55.425599 
L 286.620188 53.389272 
L 298.592759 53.651569 
L 309.476916 52.58828 
L 321.449488 54.207187 
L 332.333644 49.564814 
L 344.306216 52.311881 
L 355.190372 49.911723 
L 367.162944 56.280179 
L 378.0471 49.082526 
L 390.019672 48.552292 
L 400.903828 48.306917 
L 412.8764 47.26055 
L 423.760556 46.978511 
L 435.733128 45.043718 
L 446.617284 48.160257 
L 458.589856 42.860731 
L 469.474013 45.748818 
L 481.446584 41.010551 
L 492.330741 44.902699 
L 504.303313 44.098885 
L 505 44.135533 
" clip-path="url(#pd8d3db571e)" style="fill: none; stroke: #9467bd; stroke-width: 1.5; stroke-linecap: square"/>
   </g>
   <g id="line2d_29">
    <path d="M 48.257166 292.319182 
L 50.433997 214.981083 
L 51.522413 168.303517 
L 53.699244 141.267194 
L 54.787659 127.712367 
L 56.964491 107.760881 
L 58.052906 100.560408 
L 60.229738 94.682701 
L 61.318153 101.056797 
L 63.494984 84.907206 
L 64.5834 81.235049 
L 66.760231 75.786043 
L 67.848647 76.209102 
L 70.025478 69.44015 
L 71.113894 75.498362 
L 73.290725 67.987646 
L 74.379141 69.953462 
L 76.555972 67.601251 
L 77.644388 65.595949 
L 79.821219 70.884193 
L 80.909634 63.235277 
L 83.086466 65.17571 
L 84.174881 60.62077 
L 86.351713 65.937217 
L 87.440128 61.991482 
L 89.616959 60.758969 
L 90.705375 57.058608 
L 92.882206 61.489452 
L 93.970622 55.848658 
L 96.147453 57.041686 
L 97.235869 56.830156 
L 99.4127 58.63239 
L 100.501116 56.596063 
L 102.677947 53.640288 
L 103.766363 57.168604 
L 105.943194 52.695455 
L 107.031609 54.122575 
L 109.208441 51.508068 
L 110.296856 52.131375 
L 112.473688 56.153261 
L 113.562103 51.180902 
L 115.738934 49.686091 
L 116.82735 48.673569 
L 119.004181 48.975351 
L 120.092597 50.016078 
L 122.269428 53.829254 
L 123.357844 47.576435 
L 125.534675 52.684173 
L 126.623091 53.761565 
L 128.799922 49.082526 
L 129.888338 48.289995 
L 132.065169 51.990356 
L 133.153584 48.289995 
L 135.330416 50.399652 
L 136.418831 46.648524 
L 138.595663 49.494304 
L 139.684078 48.978172 
L 141.860909 45.486521 
L 142.949325 49.406872 
L 145.126156 46.383407 
L 146.214572 49.141755 
L 148.391403 48.081286 
L 149.479819 44.400668 
L 151.65665 49.485843 
L 152.745066 44.727834 
L 154.921897 43.938123 
L 156.010313 43.328917 
L 158.187144 46.750058 
L 159.275559 44.06222 
L 161.452391 46.425713 
L 162.540806 47.054661 
L 164.717638 45.545749 
L 165.806053 45.534467 
L 167.982884 48.918943 
L 169.0713 46.061882 
L 171.248131 44.135551 
L 172.336547 41.673344 
L 174.513378 42.838168 
L 175.601794 44.4881 
L 177.778625 47.452337 
L 178.867041 46.188799 
L 181.043872 45.05782 
L 182.132288 46.981331 
L 184.309119 41.941282 
L 185.397534 44.908339 
L 187.574366 45.049359 
L 188.662781 41.346178 
L 190.839613 45.895478 
L 191.928028 41.560528 
L 194.104859 42.872013 
L 195.193275 47.926164 
L 197.370106 45.613439 
L 198.458522 44.600916 
L 200.635353 43.814025 
L 201.723769 41.43079 
L 203.9006 43.650442 
L 204.989016 41.774879 
L 207.165847 43.605316 
L 208.254263 43.963506 
L 210.431094 43.241485 
" clip-path="url(#pd8d3db571e)" style="fill: none; stroke: #d62728; stroke-width: 1.5; stroke-linecap: square"/>
   </g>
   <g id="line2d_30">
    <path d="M 49.345581 205.033543 
L 52.610828 127.686983 
L 54.787659 101.513702 
L 58.052906 81.838614 
L 60.229738 72.271828 
L 63.494984 71.14367 
L 65.671816 62.885548 
L 68.937063 64.058833 
L 71.113894 64.780855 
L 74.379141 58.41804 
L 76.555972 49.302517 
L 79.821219 55.259195 
L 81.99805 51.874719 
L 85.263297 47.723095 
L 87.440128 51.694214 
L 90.705375 47.54259 
L 92.882206 49.663528 
L 96.147453 49.618402 
L 98.324284 45.557031 
L 101.589531 45.602157 
L 103.766363 42.217681 
L 107.031609 43.029955 
L 109.208441 43.797103 
L 112.473688 43.165334 
L 114.650519 43.436092 
L 117.915766 43.390966 
L 120.092597 41.946923 
L 123.357844 47.768222 
L 125.534675 42.307934 
L 128.799922 40.457753 
L 130.976753 43.977608 
L 134.242 40.277248 
L 136.418831 44.564251 
L 139.684078 39.871111 
L 141.860909 39.5101 
L 145.126156 37.389162 
L 147.302988 38.201436 
L 150.568234 36.080498 
L 152.745066 35.809739 
L 156.010313 40.322374 
L 158.187144 37.840425 
L 161.452391 36.66714 
L 163.629222 36.351256 
L 166.894469 34.546202 
L 169.0713 34.862086 
L 172.336547 40.186995 
L 174.513378 37.795299 
L 177.778625 37.208656 
L 179.955456 39.464974 
L 183.220703 36.66714 
L 185.397534 34.365696 
L 188.662781 34.410823 
L 190.839613 36.306129 
L 194.104859 36.215877 
L 196.281691 33.779054 
L 199.546938 37.344035 
L 201.723769 36.531761 
L 204.989016 35.719487 
L 207.165847 37.253783 
L 210.431094 35.538981 
L 212.607925 35.403602 
L 215.873172 33.147285 
L 218.050003 36.847645 
L 221.31525 39.239342 
L 223.492081 34.81696 
L 226.757328 32.019126 
L 228.934159 33.733927 
L 232.199406 35.493855 
L 234.376238 34.771833 
L 237.641484 35.31335 
L 239.818316 34.907213 
L 243.083563 32.876527 
L 245.260394 33.192411 
L 248.525641 38.788078 
L 250.702472 34.275444 
L 253.967719 31.974 
L 256.14455 32.876527 
L 259.409797 32.289884 
L 261.586628 35.223097 
L 264.851875 33.282664 
L 267.028706 36.892772 
L 270.293953 33.32779 
L 272.470784 32.786274 
L 275.736031 34.997465 
L 277.912863 34.140065 
L 281.178109 35.854866 
L 283.354941 34.862086 
L 286.620188 35.087718 
L 288.797019 30.033567 
L 292.062266 31.612989 
L 294.239097 30.936094 
L 297.504344 36.080498 
L 299.681175 32.831401 
L 302.946422 33.057032 
L 305.123253 32.921653 
L 308.3885 31.748368 
L 310.565331 32.605769 
L 313.830578 33.372917 
L 316.007409 30.845841 
L 319.272656 31.432484 
" clip-path="url(#pd8d3db571e)" style="fill: none; stroke-dasharray: 1.5,2.475; stroke-dashoffset: 0; stroke: #d62728; stroke-width: 1.5"/>
   </g>
   <g id="line2d_31">
    <path d="M 50.433997 206.567839 
L 54.787659 136.847632 
L 58.052906 102.28085 
L 62.406569 86.351249 
L 65.671816 83.598542 
L 70.025478 74.528146 
L 73.290725 66.315151 
L 77.644388 67.759194 
L 80.909634 58.327787 
L 85.263297 61.351252 
L 88.528544 58.011903 
L 92.882206 57.244755 
L 96.147453 54.311542 
L 100.501116 50.611182 
L 103.766363 54.943311 
L 108.120025 52.416235 
L 111.385272 52.73212 
L 115.738934 52.867499 
L 119.004181 47.181579 
L 123.357844 47.0462 
L 126.623091 46.865695 
L 130.976753 44.158114 
L 134.242 44.248366 
L 138.595663 50.927066 
L 141.860909 40.367501 
L 146.214572 47.948727 
L 149.479819 44.654504 
L 153.833481 45.872915 
L 157.098728 44.835009 
L 161.452391 41.992049 
L 164.717638 47.903601 
L 169.0713 41.405407 
L 172.336547 44.067861 
L 176.690209 41.134648 
L 179.955456 43.481219 
L 184.309119 39.239342 
L 187.574366 39.464974 
L 191.928028 39.149089 
L 195.193275 37.344035 
L 199.546938 39.780858 
L 202.812184 38.878331 
L 207.165847 37.118404 
L 210.431094 39.329595 
L 214.784756 39.284468 
L 218.050003 38.607573 
L 222.403666 39.464974 
L 225.668913 38.562447 
L 230.022575 36.035371 
L 233.287822 37.750172 
L 237.641484 36.712266 
L 240.906731 40.186995 
L 245.260394 39.419847 
L 248.525641 37.975804 
L 252.879303 34.81696 
L 256.14455 37.930678 
L 260.498213 36.576887 
L 263.763459 36.622014 
L 268.117122 36.125624 
L 271.382369 36.261003 
L 275.736031 35.448729 
L 279.001278 32.109379 
L 283.354941 36.802519 
L 286.620188 35.764613 
L 290.97385 38.020931 
L 294.239097 35.67436 
L 298.592759 34.997465 
L 301.858006 34.771833 
L 306.211669 36.757393 
L 309.476916 38.472194 
L 313.830578 36.66714 
L 317.095825 36.080498 
L 321.449488 34.230317 
L 324.714734 37.975804 
L 329.068397 39.600353 
L 332.333644 32.154505 
L 336.687306 33.82418 
L 339.952553 30.936094 
L 344.306216 34.32057 
L 347.571462 32.560642 
L 351.925125 34.546202 
L 355.190372 34.997465 
L 359.544034 31.297105 
L 362.809281 31.928874 
L 367.162944 37.16353 
L 370.428191 35.764613 
L 374.781853 31.297105 
L 378.0471 32.786274 
L 382.400763 35.268223 
L 385.666009 31.432484 
L 390.019672 32.605769 
L 393.284919 33.057032 
L 397.638581 34.185191 
L 400.903828 34.32057 
L 405.257491 30.936094 
L 408.522738 35.584108 
L 412.8764 32.876527 
L 416.141647 34.455949 
L 420.495309 34.546202 
L 423.760556 33.237538 
L 428.114219 34.32057 
" clip-path="url(#pd8d3db571e)" style="fill: none; stroke-dasharray: 9.6,2.4,1.5,2.4; stroke-dashoffset: 0; stroke: #d62728; stroke-width: 1.5"/>
   </g>
   <g id="patch_3">
    <path d="M 47.16875 313.39375 
L 47.16875 16.540225 
" style="fill: none; stroke: #000000; stroke-width: 0.8; stroke-linejoin: miter; stroke-linecap: square"/>
   </g>
   <g id="patch_4">
    <path d="M 482.535 313.39375 
L 482.535 16.540225 
" style="fill: none; stroke: #000000; stroke-width: 0.8; stroke-linejoin: miter; stroke-linecap: square"/>
   </g>
   <g id="patch_5">
    <path d="M 47.16875 313.39375 
L 482.535 313.39375 
" style="fill: none; stroke: #000000; stroke-width: 0.8; stroke-linejoin: miter; stroke-linecap: square"/>
   </g>
   <g id="patch_6">
    <path d="M 47.16875 16.540225 
L 482.535 16.540225 
" style="fill: none; stroke: #000000; stroke-width: 0.8; stroke-linejoin: miter; stroke-linecap: square"/>
   </g>
   <g id="axes_2">
    <g id="patch_7">
     <path d="M 112.473688 254.023045 
L 286.620188 254.023045 
L 286.620188 150.124311 
L 112.473688 150.124311 
z
" style="fill: #ffffff"/>
    </g>
    <g id="matplotlib.axis_3">
     <g id="xtick_10">
      <g id="line2d_32">
       <g>
        <use xlink:href="#mb6d18eb0cf" x="112.473688" y="254.023045" style="stroke: #000000; stroke-width: 0.8"/>
       </g>
      </g>
      <g id="text_19">
       <!-- 100 -->
       <g transform="translate(104.030563 268.943045) scale(0.12 -0.12)">
        <use xlink:href="#STSong-31"/>
        <use xlink:href="#STSong-30" x="46.899994"/>
        <use xlink:href="#STSong-30" x="93.799988"/>
       </g>
      </g>
     </g>
     <g id="xtick_11">
      <g id="line2d_33">
       <g>
        <use xlink:href="#mb6d18eb0cf" x="162.22983" y="254.023045" style="stroke: #000000; stroke-width: 0.8"/>
       </g>
      </g>
      <g id="text_20">
       <!-- 150 -->
       <g transform="translate(153.786705 268.943045) scale(0.12 -0.12)">
        <use xlink:href="#STSong-31"/>
        <use xlink:href="#STSong-35" x="46.899994"/>
        <use xlink:href="#STSong-30" x="93.799988"/>
       </g>
      </g>
     </g>
     <g id="xtick_12">
      <g id="line2d_34">
       <g>
        <use xlink:href="#mb6d18eb0cf" x="211.985973" y="254.023045" style="stroke: #000000; stroke-width: 0.8"/>
       </g>
      </g>
      <g id="text_21">
       <!-- 200 -->
       <g transform="translate(203.542848 268.943045) scale(0.12 -0.12)">
        <use xlink:href="#STSong-32"/>
        <use xlink:href="#STSong-30" x="46.899994"/>
        <use xlink:href="#STSong-30" x="93.799988"/>
       </g>
      </g>
     </g>
     <g id="xtick_13">
      <g id="line2d_35">
       <g>
        <use xlink:href="#mb6d18eb0cf" x="261.742116" y="254.023045" style="stroke: #000000; stroke-width: 0.8"/>
       </g>
      </g>
      <g id="text_22">
       <!-- 250 -->
       <g transform="translate(253.298991 268.943045) scale(0.12 -0.12)">
        <use xlink:href="#STSong-32"/>
        <use xlink:href="#STSong-35" x="46.899994"/>
        <use xlink:href="#STSong-30" x="93.799988"/>
       </g>
      </g>
     </g>
    </g>
    <g id="matplotlib.axis_4">
     <g id="ytick_8">
      <g id="line2d_36">
       <path d="M 112.473688 254.023045 
L 286.620188 254.023045 
" clip-path="url(#p19d7594c8b)" style="fill: none; stroke-dasharray: 2.96,1.28; stroke-dashoffset: 0; stroke: #b0b0b0; stroke-opacity: 0.7; stroke-width: 0.8"/>
      </g>
      <g id="line2d_37">
       <g>
        <use xlink:href="#m4c61a9b75e" x="112.473688" y="254.023045" style="stroke: #000000; stroke-width: 0.8"/>
       </g>
      </g>
      <g id="text_23">
       <!-- 80 -->
       <g transform="translate(94.216188 257.983045) scale(0.12 -0.12)">
        <use xlink:href="#STSong-38"/>
        <use xlink:href="#STSong-30" x="46.899994"/>
       </g>
      </g>
     </g>
     <g id="ytick_9">
      <g id="line2d_38">
       <path d="M 112.473688 228.048362 
L 286.620188 228.048362 
" clip-path="url(#p19d7594c8b)" style="fill: none; stroke-dasharray: 2.96,1.28; stroke-dashoffset: 0; stroke: #b0b0b0; stroke-opacity: 0.7; stroke-width: 0.8"/>
      </g>
      <g id="line2d_39">
       <g>
        <use xlink:href="#m4c61a9b75e" x="112.473688" y="228.048362" style="stroke: #000000; stroke-width: 0.8"/>
       </g>
      </g>
      <g id="text_24">
       <!-- 82 -->
       <g transform="translate(94.216188 232.008362) scale(0.12 -0.12)">
        <use xlink:href="#STSong-38"/>
        <use xlink:href="#STSong-32" x="46.899994"/>
       </g>
      </g>
     </g>
     <g id="ytick_10">
      <g id="line2d_40">
       <path d="M 112.473688 202.073678 
L 286.620188 202.073678 
" clip-path="url(#p19d7594c8b)" style="fill: none; stroke-dasharray: 2.96,1.28; stroke-dashoffset: 0; stroke: #b0b0b0; stroke-opacity: 0.7; stroke-width: 0.8"/>
      </g>
      <g id="line2d_41">
       <g>
        <use xlink:href="#m4c61a9b75e" x="112.473688" y="202.073678" style="stroke: #000000; stroke-width: 0.8"/>
       </g>
      </g>
      <g id="text_25">
       <!-- 84 -->
       <g transform="translate(94.216188 206.033678) scale(0.12 -0.12)">
        <use xlink:href="#STSong-38"/>
        <use xlink:href="#STSong-34" x="46.899994"/>
       </g>
      </g>
     </g>
     <g id="ytick_11">
      <g id="line2d_42">
       <path d="M 112.473688 176.098995 
L 286.620188 176.098995 
" clip-path="url(#p19d7594c8b)" style="fill: none; stroke-dasharray: 2.96,1.28; stroke-dashoffset: 0; stroke: #b0b0b0; stroke-opacity: 0.7; stroke-width: 0.8"/>
      </g>
      <g id="line2d_43">
       <g>
        <use xlink:href="#m4c61a9b75e" x="112.473688" y="176.098995" style="stroke: #000000; stroke-width: 0.8"/>
       </g>
      </g>
      <g id="text_26">
       <!-- 86 -->
       <g transform="translate(94.216188 180.058995) scale(0.12 -0.12)">
        <use xlink:href="#STSong-38"/>
        <use xlink:href="#STSong-36" x="46.899994"/>
       </g>
      </g>
     </g>
     <g id="ytick_12">
      <g id="line2d_44">
       <path d="M 112.473688 150.124311 
L 286.620188 150.124311 
" clip-path="url(#p19d7594c8b)" style="fill: none; stroke-dasharray: 2.96,1.28; stroke-dashoffset: 0; stroke: #b0b0b0; stroke-opacity: 0.7; stroke-width: 0.8"/>
      </g>
      <g id="line2d_45">
       <g>
        <use xlink:href="#m4c61a9b75e" x="112.473688" y="150.124311" style="stroke: #000000; stroke-width: 0.8"/>
       </g>
      </g>
      <g id="text_27">
       <!-- 88 -->
       <g transform="translate(94.216188 154.084311) scale(0.12 -0.12)">
        <use xlink:href="#STSong-38"/>
        <use xlink:href="#STSong-38" x="46.899994"/>
       </g>
      </g>
     </g>
    </g>
    <g id="line2d_46">
     <path d="M 34.113587 361 
L 34.854105 331.695466 
L 37.839473 320.721162 
L 39.829719 313.375197 
L 42.815088 301.857048 
L 44.805333 289.308029 
L 47.790702 289.405434 
L 49.780948 288.869706 
L 52.766316 282.08382 
L 54.756562 266.279849 
L 57.74193 266.076922 
L 59.732176 266.320434 
L 62.717545 270.200403 
L 64.70779 254.193504 
L 67.693159 258.300751 
L 69.683405 248.495308 
L 72.668773 282.936114 
L 74.659019 252.58632 
L 77.644388 254.972744 
L 79.634633 250.159311 
L 82.620002 252.911004 
L 84.610248 233.649153 
L 87.595616 241.068172 
L 89.585862 246.636494 
L 92.57123 251.563567 
L 94.561476 240.499975 
L 97.546845 230.085751 
L 99.53709 238.040498 
L 102.522459 231.400719 
L 104.512705 229.412032 
L 107.498073 221.327412 
L 109.488319 225.51583 
L 112.473688 228.437982 
L 114.463933 225.2642 
L 117.449302 222.983298 
L 119.439548 223.364801 
L 122.424916 212.24439 
L 124.415162 220.807919 
L 127.40053 227.650624 
L 129.390776 221.741384 
L 132.376145 215.580513 
L 134.36639 223.941115 
L 137.351759 217.228282 
L 139.342005 218.453963 
L 142.327373 213.599944 
L 144.317619 217.301336 
L 147.302988 214.371067 
L 149.293233 213.616178 
L 152.278602 217.593551 
L 154.268848 212.772001 
L 157.254216 210.442396 
L 159.244462 211.895355 
L 162.22983 205.823773 
L 164.220076 208.559232 
L 167.205445 213.145387 
L 169.19569 204.062365 
L 172.181059 211.075529 
L 174.171305 205.223108 
L 177.156673 202.698694 
L 179.146919 204.167887 
L 182.132288 206.383852 
L 184.122533 204.127302 
L 187.107902 208.055972 
L 189.098148 213.754169 
L 192.083516 200.880466 
L 194.073762 206.245862 
L 197.05913 208.161495 
L 199.049376 205.304279 
L 202.034745 198.997302 
L 204.02499 202.698694 
L 207.010359 200.231099 
L 209.000605 207.974801 
L 211.985973 216.725023 
L 213.976219 207.049453 
L 216.961588 204.768551 
L 218.951833 211.887238 
L 221.937202 205.060767 
L 223.927448 208.2589 
L 226.912816 199.500561 
L 228.903062 208.015387 
L 231.88843 208.5917 
L 233.878676 190.547412 
L 236.864045 195.198504 
L 238.85429 203.956843 
L 241.839659 214.655165 
L 243.829905 203.632159 
L 246.815273 201.773346 
L 248.805519 196.830039 
L 251.790888 194.662776 
L 253.781133 200.190514 
L 256.766502 194.995577 
L 258.756748 203.153251 
L 261.742116 198.177476 
" clip-path="url(#p19d7594c8b)" style="fill: none; stroke: #1f77b4; stroke-width: 1.5; stroke-linecap: square"/>
    </g>
    <g id="line2d_47">
     <path d="M 38.866867 361 
L 39.829719 355.145734 
L 43.81021 355.648994 
L 48.785825 324.576779 
L 52.766316 342.190861 
L 57.74193 319.049042 
L 61.722422 299.024184 
L 66.698036 281.150355 
L 70.678528 270.817301 
L 75.654142 266.255497 
L 79.634633 287.473567 
L 84.610248 268.641922 
L 88.590739 275.168061 
L 93.566353 262.497285 
L 97.546845 261.580054 
L 102.522459 258.657903 
L 106.50295 247.975814 
L 111.478565 251.94507 
L 115.459056 251.725909 
L 120.43467 259.201747 
L 124.415162 246.571558 
L 129.390776 319.170798 
L 133.371268 234.598852 
L 138.346882 247.350798 
L 142.327373 229.485086 
L 147.302988 228.738314 
L 151.283479 238.251542 
L 156.259093 237.805102 
L 160.239585 233.421874 
L 165.215199 222.350165 
L 169.19569 227.098662 
L 174.171305 222.3664 
L 178.151796 227.139248 
L 183.12741 217.017238 
L 187.107902 227.025608 
L 192.083516 226.700925 
L 196.064008 225.970387 
L 201.039622 214.119438 
L 205.020113 210.645324 
L 209.995728 203.948726 
L 213.976219 204.216589 
L 218.951833 212.479786 
L 222.932325 211.002476 
L 227.907939 223.746305 
L 231.88843 232.934849 
L 236.864045 209.549517 
L 240.844536 211.416447 
L 245.82015 210.702143 
L 249.800642 209.013789 
L 254.776256 209.866083 
L 258.756748 214.298013 
L 263.732362 206.838409 
L 267.712853 217.366273 
L 272.688468 203.486052 
L 276.668959 211.091763 
L 281.644573 201.838283 
L 285.625065 200.344738 
L 290.600679 203.088314 
L 294.58117 197.154722 
L 299.556785 220.19102 
L 303.537276 209.573868 
L 308.51289 197.55246 
L 312.493382 194.881938 
L 317.468996 199.492444 
L 321.449488 200.287919 
L 326.425102 197.706684 
L 330.405593 201.391843 
L 335.381208 195.174153 
L 339.361699 204.695498 
L 344.337313 213.681115 
L 348.317805 205.88871 
L 353.293419 204.589976 
L 357.27391 191.911083 
L 362.249525 190.019802 
L 366.230016 200.523314 
L 371.20563 202.690577 
L 375.186122 202.641874 
L 380.161736 204.094833 
L 384.142228 191.886732 
L 389.117842 196.253726 
L 393.098333 195.052396 
L 398.073948 196.52159 
L 402.054439 199.248931 
L 407.030053 207.163093 
L 411.010545 197.852792 
L 415.986159 197.089786 
L 419.96665 200.807412 
L 424.942265 197.179074 
L 428.922756 195.068631 
L 433.89837 194.118931 
L 437.878862 189.906162 
L 442.854476 194.662776 
L 446.834968 193.169232 
L 451.810582 190.652934 
L 455.791073 201.854517 
L 460.766688 189.849343 
" clip-path="url(#p19d7594c8b)" style="fill: none; stroke: #ff7f0e; stroke-width: 1.5; stroke-linecap: square"/>
    </g>
    <g id="line2d_48">
     <path d="M 32.939416 361 
L 34.854105 352.304753 
L 39.829719 339.268709 
L 43.81021 336.890402 
L 48.785825 304.714263 
L 52.766316 302.051858 
L 57.74193 286.329058 
L 61.722422 276.970054 
L 66.698036 271.23939 
L 70.678528 267.72469 
L 75.654142 249.802159 
L 79.634633 267.156494 
L 84.610248 246.604026 
L 88.590739 260.881985 
L 93.566353 242.407491 
L 97.546845 242.878282 
L 102.522459 264.956763 
L 106.50295 243.332839 
L 111.478565 228.811368 
L 115.459056 240.897713 
L 120.43467 236.652475 
L 124.415162 229.144168 
L 129.390776 235.045292 
L 133.371268 224.647301 
L 138.346882 232.666985 
L 142.327373 219.768931 
L 147.302988 215.134074 
L 151.283479 227.398994 
L 156.259093 226.782096 
L 160.239585 225.045039 
L 165.215199 209.93102 
L 169.19569 217.155229 
L 174.171305 215.142191 
L 178.151796 216.075656 
L 183.12741 223.84371 
L 187.107902 208.34007 
L 192.083516 226.668456 
L 196.064008 221.02708 
L 201.039622 209.111194 
L 205.020113 203.924374 
L 209.995728 200.677539 
L 213.976219 207.495893 
L 218.951833 216.660086 
L 222.932325 207.601415 
L 227.907939 208.218314 
L 231.88843 210.840134 
L 236.864045 213.608061 
L 240.844536 202.503884 
L 245.82015 205.969881 
L 249.800642 200.531431 
L 254.776256 205.702017 
L 258.756748 207.260498 
L 263.732362 194.403029 
L 267.712853 200.442143 
L 272.688468 190.717871 
L 276.668959 208.299485 
L 281.644573 197.008615 
L 285.625065 196.740751 
L 290.600679 194.557254 
L 294.58117 190.417539 
L 299.556785 204.500688 
L 303.537276 198.299232 
L 308.51289 197.382001 
L 312.493382 186.123599 
L 317.468996 196.107618 
L 321.449488 202.008741 
L 326.425102 193.242286 
L 330.405593 196.813805 
L 335.381208 189.889928 
L 339.361699 199.857713 
L 344.337313 205.369216 
L 348.317805 192.349406 
L 353.293419 193.015007 
L 357.27391 188.940229 
L 362.249525 189.532776 
L 366.230016 191.9192 
L 371.20563 204.508805 
L 375.186122 201.326906 
L 380.161736 190.149675 
L 384.142228 187.227523 
L 389.117842 193.226052 
L 393.098333 191.229248 
L 398.073948 191.33477 
L 402.054439 187.706431 
L 407.030053 191.269833 
L 411.010545 184.613821 
L 415.986159 188.980814 
L 419.96665 188.696716 
L 424.942265 193.177349 
L 428.922756 194.703362 
L 433.89837 198.169358 
L 437.878862 192.17083 
L 442.854476 189.281146 
L 446.834968 191.513346 
L 451.810582 189.208093 
L 455.791073 190.133441 
L 460.766688 191.967903 
" clip-path="url(#p19d7594c8b)" style="fill: none; stroke: #2ca02c; stroke-width: 1.5; stroke-linecap: square"/>
    </g>
    <g id="line2d_49">
     <path d="M 27.436141 361 
L 30.873613 341.866178 
L 34.854105 306.345798 
L 39.829719 309.332887 
L 43.81021 292.384406 
L 48.785825 290.363251 
L 52.766316 261.750513 
L 57.74193 271.328678 
L 61.722422 261.531352 
L 66.698036 238.202839 
L 70.678528 233.738441 
L 75.654142 231.53871 
L 79.634633 241.758124 
L 84.610248 241.29545 
L 88.590739 242.740292 
L 93.566353 238.909026 
L 97.546845 226.79833 
L 102.522459 232.772507 
L 106.50295 225.872982 
L 111.478565 221.773852 
L 115.459056 232.447824 
L 120.43467 231.798456 
L 124.415162 212.179453 
L 129.390776 220.402064 
L 133.371268 214.768805 
L 138.346882 225.799928 
L 142.327373 208.372539 
L 147.302988 220.207254 
L 151.283479 213.299612 
L 156.259093 217.674722 
L 160.239585 206.854643 
L 165.215199 195.855988 
L 169.19569 206.984517 
L 174.171305 202.747396 
L 178.151796 201.724643 
L 183.12741 201.554184 
L 187.107902 201.408077 
L 192.083516 199.508678 
L 196.064008 207.820577 
L 201.039622 197.130371 
L 205.020113 186.229121 
L 209.995728 194.516669 
L 213.976219 207.853045 
L 218.951833 205.807539 
L 222.932325 200.847998 
L 227.907939 199.882064 
L 231.88843 202.609406 
L 236.864045 199.47621 
L 240.844536 201.416194 
L 245.82015 204.176004 
L 249.800642 195.393314 
L 254.776256 189.979216 
L 258.756748 191.018203 
L 263.732362 202.852919 
L 267.712853 201.391843 
L 272.688468 193.883536 
L 276.668959 206.27833 
L 281.644573 184.151147 
L 285.625065 182.990403 
L 290.600679 186.578156 
L 294.58117 185.222602 
L 299.556785 187.471036 
L 303.537276 187.471036 
L 308.51289 180.87996 
L 312.493382 192.325055 
L 317.468996 189.841226 
L 321.449488 189.914279 
L 326.425102 182.917349 
L 330.405593 192.089659 
L 335.381208 186.724264 
L 339.361699 188.510023 
L 344.337313 196.01833 
L 348.317805 187.43045 
L 353.293419 189.005165 
L 357.27391 177.779232 
L 362.249525 176.431795 
L 366.230016 185.360593 
L 371.20563 187.065181 
L 375.186122 200.304153 
L 380.161736 185.230719 
L 384.142228 178.542238 
L 389.117842 180.936779 
L 393.098333 187.584675 
L 398.073948 185.912555 
L 402.054439 192.625387 
L 407.030053 194.159517 
L 411.010545 176.293805 
L 415.986159 177.267855 
L 419.96665 190.165909 
L 424.942265 206.521843 
L 428.922756 188.566843 
L 433.89837 176.999991 
L 437.878862 183.331321 
L 442.854476 183.785878 
L 446.834968 188.599311 
L 451.810582 183.144628 
L 455.791073 186.091131 
L 460.766688 191.342887 
" clip-path="url(#p19d7594c8b)" style="fill: none; stroke: #8c564b; stroke-width: 1.5; stroke-linecap: square"/>
    </g>
    <g id="line2d_50">
     <path d="M 53.800446 361 
L 54.756562 355.040212 
L 64.70779 330.583424 
L 75.654142 305.86689 
L 85.60537 290.590529 
L 96.551722 286.57257 
L 106.50295 277.002523 
L 117.449302 285.160197 
L 127.40053 253.860703 
L 138.346882 262.172602 
L 148.29811 250.548931 
L 159.244462 238.584343 
L 169.19569 235.532317 
L 180.142042 237.366779 
L 190.09327 248.462839 
L 201.039622 247.845941 
L 210.99085 235.451146 
L 221.937202 234.891067 
L 231.88843 229.030529 
L 242.834782 229.785418 
L 252.78601 226.725276 
L 263.732362 231.384485 
L 273.68359 218.023757 
L 284.629942 225.929801 
L 294.58117 219.022159 
L 305.527522 237.350545 
L 315.47875 216.635735 
L 326.425102 215.109722 
L 336.37633 214.403536 
L 347.322682 211.392096 
L 357.27391 210.580387 
L 368.220262 205.012064 
L 378.17149 213.981447 
L 389.117842 198.729438 
L 399.06907 207.041336 
L 410.015422 193.404627 
L 419.96665 204.60621 
L 430.913002 202.292839 
L 440.86423 203.940608 
L 451.810582 204.200355 
L 461.76181 193.972824 
L 472.708162 197.463172 
L 482.65939 200.888583 
L 493.605742 212.309327 
L 503.55697 203.826969 
L 505 204.015299 
" clip-path="url(#p19d7594c8b)" style="fill: none; stroke: #9467bd; stroke-width: 1.5; stroke-linecap: square"/>
    </g>
    <g id="line2d_51">
     <path d="M 23.358404 361 
L 24.902876 347.872823 
L 25.614973 361 
M 26.121414 361 
L 27.888245 319.738994 
L 28.883368 309.170545 
L 30.873613 293.48833 
L 31.868736 294.705893 
L 33.858982 275.22488 
L 34.854105 292.660387 
L 36.84435 271.04458 
L 37.839473 276.70219 
L 39.829719 269.932539 
L 40.824842 264.161289 
L 42.815088 279.38083 
L 43.81021 257.367285 
L 45.800456 262.951842 
L 46.795579 249.842744 
L 48.785825 265.143456 
L 49.780948 253.787649 
L 51.771193 250.240482 
L 52.766316 239.590861 
L 54.756562 252.342808 
L 55.751685 236.10863 
L 57.74193 239.542159 
L 58.737053 238.933377 
L 60.727299 244.120197 
L 61.722422 238.259659 
L 63.712668 229.75295 
L 64.70779 239.907428 
L 66.698036 227.033725 
L 67.693159 231.140972 
L 69.683405 223.616431 
L 70.678528 225.410308 
L 72.668773 236.985276 
L 73.663896 222.674849 
L 75.654142 218.372792 
L 76.649265 215.458757 
L 78.63951 216.327286 
L 79.634633 219.322491 
L 81.624879 230.296795 
L 82.620002 212.30121 
L 84.610248 227.001257 
L 85.60537 230.101985 
L 87.595616 216.635735 
L 88.590739 214.354833 
L 90.580985 225.004453 
L 91.576108 214.354833 
L 93.566353 220.426415 
L 94.561476 209.630688 
L 96.551722 217.82083 
L 97.546845 216.335403 
L 99.53709 206.286447 
L 100.532213 217.5692 
L 102.522459 208.867681 
L 103.517582 216.806194 
L 105.507828 213.754169 
L 106.50295 203.161368 
L 108.493196 217.796479 
L 109.488319 204.10295 
L 111.478565 201.830165 
L 112.473688 200.076874 
L 114.463933 209.922903 
L 115.459056 202.187317 
L 117.449302 208.989438 
L 118.444425 210.799548 
L 120.43467 206.456906 
L 121.429793 206.424438 
L 123.420039 216.164944 
L 124.415162 207.942333 
L 126.405408 202.398362 
L 127.40053 195.312143 
L 129.390776 198.664501 
L 130.385899 203.412998 
L 132.376145 211.944058 
L 133.371268 208.307602 
L 135.361513 205.05265 
L 136.356636 210.588504 
L 138.346882 196.083267 
L 139.342005 204.622444 
L 141.33225 205.028298 
L 142.327373 194.370561 
L 144.317619 207.463425 
L 145.312742 194.98746 
L 147.302988 198.761906 
L 148.29811 213.307729 
L 150.288356 206.651716 
L 151.283479 203.737681 
L 153.273725 201.473014 
L 154.268848 194.614074 
L 156.259093 201.002222 
L 157.254216 195.604358 
L 159.244462 200.872349 
L 160.239585 201.903219 
L 162.22983 199.825245 
" clip-path="url(#p19d7594c8b)" style="fill: none; stroke: #d62728; stroke-width: 1.5; stroke-linecap: square"/>
    </g>
    <g id="line2d_52">
     <path d="M 20.271663 361 
L 22.91263 310.907602 
L 24.902876 283.374437 
L 27.888245 280.127602 
L 29.87849 256.360766 
L 32.863859 259.737475 
L 34.854105 261.81545 
L 37.839473 243.503298 
L 39.829719 217.268868 
L 42.815088 234.412159 
L 44.805333 224.671653 
L 47.790702 212.723298 
L 49.780948 224.152159 
L 52.766316 212.203805 
L 54.756562 218.307855 
L 57.74193 218.177982 
L 59.732176 206.489374 
L 62.717545 206.619248 
L 64.70779 196.878741 
L 67.693159 199.216463 
L 69.683405 201.424311 
L 72.668773 199.606083 
L 74.659019 200.385324 
L 77.644388 200.25545 
L 79.634633 196.099501 
L 82.620002 212.853172 
L 84.610248 197.138488 
L 87.595616 191.813678 
L 89.585862 201.943805 
L 92.57123 191.294184 
L 94.561476 203.632159 
L 97.546845 190.125324 
L 99.53709 189.086336 
L 102.522459 182.982286 
L 104.512705 185.320007 
L 107.498073 179.215957 
L 109.488319 178.436716 
L 112.473688 191.424058 
L 114.463933 184.28102 
L 117.449302 180.904311 
L 119.439548 179.995197 
L 122.424916 174.80026 
L 124.415162 175.709374 
L 127.40053 191.034438 
L 129.390776 184.151147 
L 132.376145 182.462792 
L 134.36639 188.956463 
L 137.351759 180.904311 
L 139.342005 174.280767 
L 142.327373 174.41064 
L 144.317619 179.865324 
L 147.302988 179.605577 
L 149.293233 172.592412 
L 152.278602 182.852412 
L 154.268848 180.514691 
L 157.254216 178.176969 
L 159.244462 182.592666 
L 162.22983 177.657476 
L 164.220076 177.267855 
L 167.205445 170.774185 
L 169.19569 181.423805 
L 172.181059 188.307096 
L 174.171305 175.579501 
L 177.156673 167.527349 
L 179.146919 172.462539 
L 182.132288 177.527602 
L 184.122533 175.449628 
L 187.107902 177.008109 
L 189.098148 175.839248 
L 192.083516 169.994944 
L 194.073762 170.904058 
L 197.05913 187.008362 
L 199.049376 174.02102 
L 202.034745 167.397476 
L 204.02499 169.994944 
L 207.010359 168.30659 
L 209.000605 176.748362 
L 211.985973 171.163805 
L 213.976219 181.553678 
L 216.961588 171.293678 
L 218.951833 169.735197 
L 221.937202 176.098995 
L 223.927448 173.6314 
L 226.912816 178.56659 
L 228.903062 175.709374 
L 231.88843 176.358741 
L 233.878676 161.812919 
L 236.864045 166.358488 
L 238.85429 164.410387 
L 241.839659 179.215957 
L 243.829905 169.865071 
L 246.815273 170.514438 
L 248.805519 170.124817 
L 251.790888 166.748109 
L 253.781133 169.215704 
L 256.766502 171.423552 
L 258.756748 164.15064 
L 261.742116 165.838995 
" clip-path="url(#p19d7594c8b)" style="fill: none; stroke-dasharray: 1.5,2.475; stroke-dashoffset: 0; stroke: #d62728; stroke-width: 1.5"/>
    </g>
    <g id="line2d_53">
     <path d="M 23.671498 361 
L 26.893122 323.894943 
L 29.87849 315.972665 
L 33.858982 289.868108 
L 36.84435 266.231146 
L 40.824842 270.387096 
L 43.81021 243.243551 
L 47.790702 251.94507 
L 50.77607 242.334437 
L 54.756562 240.126589 
L 57.74193 231.684817 
L 61.722422 221.035197 
L 64.70779 233.503045 
L 68.688282 226.230134 
L 71.67365 227.139248 
L 75.654142 227.528868 
L 78.63951 211.164817 
L 82.620002 210.775197 
L 85.60537 210.255703 
L 89.585862 202.463298 
L 92.57123 202.723045 
L 96.551722 221.944311 
L 99.53709 191.553931 
L 103.517582 213.372665 
L 106.50295 203.891906 
L 110.483442 207.398488 
L 113.46881 204.4114 
L 117.449302 196.229374 
L 120.43467 213.242792 
L 124.415162 194.54102 
L 127.40053 202.203552 
L 131.381022 193.761779 
L 134.36639 200.515197 
L 138.346882 188.307096 
L 141.33225 188.956463 
L 145.312742 188.047349 
L 148.29811 182.852412 
L 152.278602 189.865577 
L 155.26397 187.268109 
L 159.244462 182.203045 
L 162.22983 188.566843 
L 166.210322 188.436969 
L 169.19569 186.488868 
L 173.176182 188.956463 
L 176.16155 186.358995 
L 180.142042 179.086083 
L 183.12741 184.021273 
L 187.107902 181.034184 
L 190.09327 191.034438 
L 194.073762 188.82659 
L 197.05913 184.67064 
L 201.039622 175.579501 
L 204.02499 184.540767 
L 208.005482 180.644564 
L 210.99085 180.774438 
L 214.971342 179.34583 
L 217.95671 179.73545 
L 221.937202 177.397729 
L 224.92257 167.787096 
L 228.903062 181.293931 
L 231.88843 178.306843 
L 235.868922 184.800514 
L 238.85429 178.047096 
L 242.834782 176.098995 
L 245.82015 175.449628 
L 249.800642 181.164058 
L 252.78601 186.099248 
L 256.766502 180.904311 
L 259.75187 179.215957 
L 263.732362 173.891147 
L 266.71773 184.67064 
L 270.698222 189.346083 
L 273.68359 167.916969 
L 277.664082 172.722286 
L 280.64945 164.410387 
L 284.629942 174.150893 
L 287.61531 169.08583 
L 291.595802 174.80026 
L 294.58117 176.098995 
L 298.561662 165.449374 
L 301.54703 167.267602 
L 305.527522 182.332919 
L 308.51289 178.306843 
L 312.493382 165.449374 
L 315.47875 169.735197 
L 319.459242 176.878235 
L 322.44461 165.838995 
L 326.425102 169.215704 
L 329.41047 170.514438 
L 333.390962 173.761273 
L 336.37633 174.150893 
L 340.356822 164.410387 
L 343.34219 177.787349 
L 347.322682 169.994944 
L 350.30805 174.540514 
L 354.288542 174.80026 
L 357.27391 171.033931 
L 361.254402 174.150893 
" clip-path="url(#p19d7594c8b)" style="fill: none; stroke-dasharray: 9.6,2.4,1.5,2.4; stroke-dashoffset: 0; stroke: #d62728; stroke-width: 1.5"/>
    </g>
    <g id="patch_8">
     <path d="M 112.473688 254.023045 
L 112.473688 150.124311 
" style="fill: none; stroke: #000000; stroke-width: 0.8; stroke-linejoin: miter; stroke-linecap: square"/>
    </g>
    <g id="patch_9">
     <path d="M 286.620188 254.023045 
L 286.620188 150.124311 
" style="fill: none; stroke: #000000; stroke-width: 0.8; stroke-linejoin: miter; stroke-linecap: square"/>
    </g>
    <g id="patch_10">
     <path d="M 112.473688 254.023045 
L 286.620188 254.023045 
" style="fill: none; stroke: #000000; stroke-width: 0.8; stroke-linejoin: miter; stroke-linecap: square"/>
    </g>
    <g id="patch_11">
     <path d="M 112.473688 150.124311 
L 286.620188 150.124311 
" style="fill: none; stroke: #000000; stroke-width: 0.8; stroke-linejoin: miter; stroke-linecap: square"/>
    </g>
   </g>
   <g id="legend_1">
    <g id="patch_12">
     <path d="M 300.069375 307.39375 
L 474.135 307.39375 
Q 476.535 307.39375 476.535 304.99375 
L 476.535 166.2475 
Q 476.535 163.8475 474.135 163.8475 
L 300.069375 163.8475 
Q 297.669375 163.8475 297.669375 166.2475 
L 297.669375 304.99375 
Q 297.669375 307.39375 300.069375 307.39375 
z
" style="fill: #ffffff; opacity: 0.8; stroke: #cccccc; stroke-linejoin: miter"/>
    </g>
    <g id="line2d_54">
     <path d="M 302.469375 172.8475 
L 314.469375 172.8475 
L 326.469375 172.8475 
" style="fill: none; stroke: #1f77b4; stroke-width: 1.5; stroke-linecap: square"/>
    </g>
    <g id="text_28">
     <!-- ring(r=16, b=0.5) -->
     <g transform="translate(336.069375 177.0475) scale(0.12 -0.12)">
      <defs>
       <path id="STSong-72" d="M 134 -26 
L 134 77 
L 454 134 
Q 582 166 617 230 
Q 653 294 653 461 
L 653 1690 
Q 653 1818 598 1875 
Q 544 1933 358 1971 
L 186 2010 
L 198 2106 
Q 448 2195 614 2313 
Q 781 2432 909 2701 
L 1024 2701 
Q 1050 2355 1050 1894 
Q 1171 2125 1401 2339 
Q 1632 2554 1811 2554 
Q 1952 2554 2038 2464 
Q 2125 2374 2125 2234 
Q 2125 2125 2054 2061 
Q 1984 1997 1875 1997 
Q 1779 1997 1670 2042 
Q 1542 2099 1459 2099 
Q 1318 2099 1184 1868 
Q 1050 1638 1050 1510 
L 1050 448 
Q 1050 282 1104 227 
Q 1158 173 1338 147 
L 1830 77 
L 1830 -26 
Q 1485 0 979 0 
Q 499 0 134 -26 
z
" transform="scale(0.015625)"/>
       <path id="STSong-69" d="M 717 4096 
Q 826 4096 915 4013 
Q 1005 3930 1005 3821 
Q 1005 3718 912 3638 
Q 819 3558 704 3558 
Q 595 3558 518 3635 
Q 442 3712 442 3821 
Q 442 3930 525 4013 
Q 608 4096 717 4096 
z
M 1421 -26 
Q 1222 0 717 0 
Q 211 0 13 -26 
L 13 77 
L 371 147 
Q 570 186 570 378 
L 570 1882 
Q 570 2035 493 2105 
Q 416 2176 186 2227 
L 186 2317 
Q 640 2432 851 2778 
L 954 2778 
L 954 358 
Q 954 262 982 217 
Q 1011 173 1094 154 
L 1421 77 
L 1421 -26 
z
" transform="scale(0.015625)"/>
       <path id="STSong-6e" d="M 3200 -19 
Q 2867 0 2534 0 
Q 2202 0 1869 -19 
L 1869 83 
L 2221 134 
Q 2362 154 2362 384 
L 2362 1645 
Q 2362 1926 2202 2092 
Q 2042 2259 1766 2259 
Q 1357 2259 966 1869 
L 966 314 
Q 966 211 1120 173 
L 1498 83 
L 1498 -19 
Q 1261 0 806 0 
Q 352 0 115 -19 
L 115 83 
L 454 147 
Q 582 166 582 339 
L 582 1606 
Q 582 1805 502 1875 
Q 422 1946 218 1978 
L 218 2093 
Q 627 2189 864 2669 
L 966 2669 
L 966 2093 
Q 1210 2304 1504 2429 
Q 1798 2554 2022 2554 
Q 2758 2554 2758 1677 
L 2758 403 
Q 2758 282 2790 218 
Q 2822 154 2918 134 
L 3200 83 
L 3200 -19 
z
" transform="scale(0.015625)"/>
       <path id="STSong-67" d="M 1050 -243 
Q 768 -134 608 13 
Q 448 160 448 288 
Q 448 390 515 448 
Q 582 506 762 557 
Q 922 608 1101 685 
Q 794 858 650 1066 
Q 506 1274 506 1562 
Q 506 1978 803 2266 
Q 1101 2554 1555 2554 
Q 1760 2554 1907 2506 
Q 2054 2458 2240 2342 
Q 2400 2240 2496 2240 
Q 2573 2240 2758 2266 
Q 2925 2285 2989 2285 
Q 3098 2285 3126 2240 
Q 3155 2195 3155 2054 
Q 3155 1958 3046 1958 
Q 2970 1958 2765 2010 
Q 2509 2074 2458 2054 
Q 2592 1786 2592 1574 
Q 2592 1254 2320 940 
Q 2048 627 1459 627 
Q 1210 627 1011 531 
Q 813 435 813 346 
Q 813 237 1165 128 
Q 1517 19 2054 0 
Q 2515 -13 2771 -201 
Q 3027 -390 3027 -678 
Q 3027 -922 2851 -1155 
Q 2675 -1389 2297 -1526 
Q 1920 -1664 1485 -1664 
Q 954 -1664 598 -1456 
Q 243 -1248 243 -992 
Q 243 -589 1050 -243 
z
M 1530 2445 
Q 922 2445 922 1574 
Q 922 1184 1094 960 
Q 1267 736 1536 736 
Q 1824 736 1997 953 
Q 2170 1171 2170 1568 
Q 2170 1971 1990 2208 
Q 1811 2445 1530 2445 
z
M 621 -928 
Q 621 -1178 870 -1357 
Q 1120 -1536 1536 -1536 
Q 2067 -1536 2406 -1337 
Q 2746 -1139 2746 -845 
Q 2746 -538 2426 -426 
Q 2106 -314 1485 -314 
Q 1043 -314 832 -512 
Q 621 -710 621 -928 
z
" transform="scale(0.015625)"/>
       <path id="STSong-28" d="M 1901 4198 
L 1984 4032 
Q 1350 3450 1068 2797 
Q 787 2144 787 1286 
Q 787 582 1091 -112 
Q 1395 -806 1965 -1312 
L 1888 -1459 
Q 1242 -992 867 -208 
Q 493 576 493 1389 
Q 493 2208 864 2985 
Q 1235 3763 1901 4198 
z
" transform="scale(0.015625)"/>
       <path id="STSong-3d" d="M 461 2854 
L 3808 2854 
L 3808 2579 
L 461 2579 
L 461 2854 
z
M 461 1408 
L 3808 1408 
L 3808 1126 
L 461 1126 
L 461 1408 
z
" transform="scale(0.015625)"/>
       <path id="STSong-2c" d="M 333 -1114 
L 333 -973 
Q 602 -864 762 -662 
Q 922 -461 922 -314 
Q 922 -198 864 -150 
Q 806 -102 608 -102 
Q 493 -102 419 -32 
Q 346 38 346 147 
Q 346 262 448 348 
Q 550 435 672 435 
Q 902 435 1075 272 
Q 1248 109 1248 -122 
Q 1248 -442 963 -749 
Q 678 -1056 333 -1114 
z
" transform="scale(0.015625)"/>
       <path id="STSong-20" transform="scale(0.015625)"/>
       <path id="STSong-62" d="M 102 3930 
L 122 4026 
L 941 4224 
L 941 2330 
Q 1459 2554 1856 2554 
Q 2374 2554 2700 2189 
Q 3027 1824 3027 1267 
Q 3027 640 2643 269 
Q 2259 -102 1709 -102 
Q 1427 -102 1165 13 
Q 922 122 877 122 
Q 774 122 634 -134 
L 538 -134 
L 538 3405 
Q 538 3654 467 3737 
Q 397 3821 102 3930 
z
M 941 691 
Q 941 410 1117 246 
Q 1293 83 1594 83 
Q 2560 83 2560 1146 
Q 2560 1664 2285 2003 
Q 2010 2342 1587 2342 
Q 1312 2342 1126 2265 
Q 941 2189 941 2086 
L 941 691 
z
" transform="scale(0.015625)"/>
       <path id="STSong-2e" d="M 704 -102 
Q 563 -102 467 -6 
Q 371 90 371 230 
Q 371 371 467 467 
Q 563 563 704 563 
Q 845 563 941 467 
Q 1037 371 1037 230 
Q 1037 90 941 -6 
Q 845 -102 704 -102 
z
" transform="scale(0.015625)"/>
       <path id="STSong-29" d="M -38 4198 
Q 627 3763 998 2985 
Q 1370 2208 1370 1389 
Q 1370 576 995 -208 
Q 621 -992 -26 -1459 
L -102 -1312 
Q 467 -806 771 -112 
Q 1075 582 1075 1286 
Q 1075 2144 793 2797 
Q 512 3450 -122 4032 
L -38 4198 
z
" transform="scale(0.015625)"/>
      </defs>
      <use xlink:href="#STSong-72"/>
      <use xlink:href="#STSong-69" x="33.299988"/>
      <use xlink:href="#STSong-6e" x="56.199982"/>
      <use xlink:href="#STSong-67" x="107.199966"/>
      <use xlink:href="#STSong-28" x="151.999954"/>
      <use xlink:href="#STSong-72" x="181.199951"/>
      <use xlink:href="#STSong-3d" x="214.499939"/>
      <use xlink:href="#STSong-31" x="281.199936"/>
      <use xlink:href="#STSong-36" x="328.09993"/>
      <use xlink:href="#STSong-2c" x="374.999924"/>
      <use xlink:href="#STSong-20" x="396.899918"/>
      <use xlink:href="#STSong-62" x="421.899902"/>
      <use xlink:href="#STSong-3d" x="472.899887"/>
      <use xlink:href="#STSong-30" x="539.599884"/>
      <use xlink:href="#STSong-2e" x="586.499878"/>
      <use xlink:href="#STSong-35" x="608.399872"/>
      <use xlink:href="#STSong-29" x="655.299866"/>
     </g>
    </g>
    <g id="line2d_55">
     <path d="M 302.469375 190.3675 
L 314.469375 190.3675 
L 326.469375 190.3675 
" style="fill: none; stroke: #ff7f0e; stroke-width: 1.5; stroke-linecap: square"/>
    </g>
    <g id="text_29">
     <!-- 2D-grid(r=24, b=0.25) -->
     <g transform="translate(336.069375 194.5675) scale(0.12 -0.12)">
      <defs>
       <path id="STSong-44" d="M 762 3526 
Q 762 3680 723 3744 
Q 685 3808 576 3827 
L 141 3904 
L 141 4006 
Q 550 3994 1139 4029 
Q 1728 4064 1971 4064 
Q 2598 4064 2963 3993 
Q 3328 3923 3651 3737 
Q 3974 3552 4182 3305 
Q 4390 3059 4505 2739 
Q 4621 2419 4621 2061 
Q 4621 1459 4288 905 
Q 3955 352 3424 173 
Q 2893 -6 2394 -6 
L 1357 19 
L 77 19 
L 77 122 
L 576 230 
Q 678 250 720 314 
Q 762 378 762 557 
L 762 3526 
z
M 1286 710 
Q 1286 506 1507 330 
Q 1728 154 2144 154 
Q 2880 154 3433 637 
Q 3987 1120 3987 2086 
Q 3987 2931 3411 3417 
Q 2835 3904 1811 3904 
Q 1466 3904 1376 3837 
Q 1286 3770 1286 3526 
L 1286 710 
z
" transform="scale(0.015625)"/>
       <path id="STSong-2d" d="M 243 1389 
L 1760 1389 
L 1760 1114 
L 243 1114 
L 243 1389 
z
" transform="scale(0.015625)"/>
       <path id="STSong-64" d="M 2285 3488 
Q 2285 3731 2205 3811 
Q 2125 3891 1786 3974 
L 1786 4077 
Q 2195 4109 2528 4224 
L 2688 4224 
L 2688 435 
Q 2688 218 2755 170 
Q 2822 122 3123 115 
L 3123 13 
Q 2643 -96 2285 -134 
L 2285 160 
Q 1952 26 1728 -38 
Q 1504 -102 1242 -102 
Q 826 -102 518 262 
Q 211 627 211 1114 
Q 211 1709 585 2131 
Q 960 2554 1459 2554 
Q 1958 2554 2285 2381 
L 2285 3488 
z
M 2285 320 
L 2285 1773 
Q 2285 2067 2080 2236 
Q 1875 2406 1523 2406 
Q 1152 2406 909 2073 
Q 666 1741 666 1203 
Q 666 730 934 432 
Q 1203 134 1606 134 
Q 1805 134 1997 188 
Q 2189 243 2285 320 
z
" transform="scale(0.015625)"/>
      </defs>
      <use xlink:href="#STSong-32"/>
      <use xlink:href="#STSong-44" x="46.899994"/>
      <use xlink:href="#STSong-2d" x="123.999985"/>
      <use xlink:href="#STSong-67" x="155.299973"/>
      <use xlink:href="#STSong-72" x="200.09996"/>
      <use xlink:href="#STSong-69" x="233.399948"/>
      <use xlink:href="#STSong-64" x="256.299942"/>
      <use xlink:href="#STSong-28" x="306.299927"/>
      <use xlink:href="#STSong-72" x="335.499924"/>
      <use xlink:href="#STSong-3d" x="368.799911"/>
      <use xlink:href="#STSong-32" x="435.499908"/>
      <use xlink:href="#STSong-34" x="482.399902"/>
      <use xlink:href="#STSong-2c" x="529.299896"/>
      <use xlink:href="#STSong-20" x="551.19989"/>
      <use xlink:href="#STSong-62" x="576.199875"/>
      <use xlink:href="#STSong-3d" x="627.19986"/>
      <use xlink:href="#STSong-30" x="693.899857"/>
      <use xlink:href="#STSong-2e" x="740.79985"/>
      <use xlink:href="#STSong-32" x="762.699844"/>
      <use xlink:href="#STSong-35" x="809.599838"/>
      <use xlink:href="#STSong-29" x="856.499832"/>
     </g>
    </g>
    <g id="line2d_56">
     <path d="M 302.469375 207.8875 
L 314.469375 207.8875 
L 326.469375 207.8875 
" style="fill: none; stroke: #2ca02c; stroke-width: 1.5; stroke-linecap: square"/>
    </g>
    <g id="text_30">
     <!-- 2D-torus(r=32, b=0.25) -->
     <g transform="translate(336.069375 212.0875) scale(0.12 -0.12)">
      <defs>
       <path id="STSong-74" d="M 979 3085 
L 1056 3085 
L 1062 2400 
L 1933 2419 
L 1933 2189 
L 1062 2163 
L 1062 640 
Q 1062 352 1142 224 
Q 1222 96 1402 96 
Q 1619 96 1926 275 
L 1984 186 
Q 1850 32 1674 -35 
Q 1498 -102 1197 -102 
Q 864 -102 761 61 
Q 659 224 659 704 
L 659 2150 
L 314 2144 
Q 224 2144 224 2195 
Q 224 2240 307 2278 
Q 582 2394 707 2544 
Q 832 2694 979 3085 
z
" transform="scale(0.015625)"/>
       <path id="STSong-6f" d="M 1587 -102 
Q 1030 -102 640 269 
Q 250 640 250 1235 
Q 250 1805 640 2179 
Q 1030 2554 1664 2554 
Q 2253 2554 2630 2160 
Q 3008 1766 3008 1184 
Q 3008 653 2608 275 
Q 2208 -102 1587 -102 
z
M 710 1171 
Q 710 640 960 329 
Q 1210 19 1606 19 
Q 2016 19 2281 345 
Q 2547 672 2547 1210 
Q 2547 1760 2297 2096 
Q 2048 2432 1638 2432 
Q 1197 2432 953 2112 
Q 710 1792 710 1171 
z
" transform="scale(0.015625)"/>
       <path id="STSong-75" d="M 102 2438 
L 922 2438 
L 922 787 
Q 922 480 1027 352 
Q 1133 224 1427 224 
Q 1862 224 2227 550 
L 2227 2093 
Q 2227 2214 2131 2256 
Q 2035 2298 1638 2336 
L 1638 2438 
L 2643 2438 
L 2643 557 
Q 2643 339 2710 291 
Q 2778 243 3091 230 
L 3098 134 
L 2227 -96 
L 2227 390 
Q 1946 147 1715 22 
Q 1485 -102 1254 -102 
Q 934 -102 726 134 
Q 518 371 518 762 
L 518 2099 
Q 518 2214 451 2256 
Q 384 2298 102 2349 
L 102 2438 
z
" transform="scale(0.015625)"/>
       <path id="STSong-73" d="M 1792 1843 
Q 1734 2061 1536 2233 
Q 1338 2406 1184 2406 
Q 717 2406 717 1978 
Q 717 1805 870 1686 
Q 1024 1568 1338 1453 
Q 2061 1178 2061 672 
Q 2061 339 1805 118 
Q 1549 -102 1171 -102 
Q 710 -102 416 64 
L 352 787 
L 461 787 
Q 550 448 774 240 
Q 998 32 1254 32 
Q 1459 32 1600 163 
Q 1741 294 1741 493 
Q 1741 858 1139 1082 
Q 717 1242 534 1418 
Q 352 1594 352 1850 
Q 352 2176 595 2365 
Q 838 2554 1248 2554 
Q 1613 2554 1875 2400 
L 1914 1843 
L 1792 1843 
z
" transform="scale(0.015625)"/>
      </defs>
      <use xlink:href="#STSong-32"/>
      <use xlink:href="#STSong-44" x="46.899994"/>
      <use xlink:href="#STSong-2d" x="123.999985"/>
      <use xlink:href="#STSong-74" x="155.299973"/>
      <use xlink:href="#STSong-6f" x="184.499969"/>
      <use xlink:href="#STSong-72" x="235.499954"/>
      <use xlink:href="#STSong-75" x="268.799942"/>
      <use xlink:href="#STSong-73" x="317.799927"/>
      <use xlink:href="#STSong-28" x="354.299911"/>
      <use xlink:href="#STSong-72" x="383.499908"/>
      <use xlink:href="#STSong-3d" x="416.799896"/>
      <use xlink:href="#STSong-33" x="483.499893"/>
      <use xlink:href="#STSong-32" x="530.399887"/>
      <use xlink:href="#STSong-2c" x="577.299881"/>
      <use xlink:href="#STSong-20" x="599.199875"/>
      <use xlink:href="#STSong-62" x="624.19986"/>
      <use xlink:href="#STSong-3d" x="675.199844"/>
      <use xlink:href="#STSong-30" x="741.899841"/>
      <use xlink:href="#STSong-2e" x="788.799835"/>
      <use xlink:href="#STSong-32" x="810.699829"/>
      <use xlink:href="#STSong-35" x="857.599823"/>
      <use xlink:href="#STSong-29" x="904.499817"/>
     </g>
    </g>
    <g id="line2d_57">
     <path d="M 302.469375 225.371875 
L 314.469375 225.371875 
L 326.469375 225.371875 
" style="fill: none; stroke: #8c564b; stroke-width: 1.5; stroke-linecap: square"/>
    </g>
    <g id="text_31">
     <!-- exponential(r=32, b=0.25) -->
     <g transform="translate(336.069375 229.571875) scale(0.12 -0.12)">
      <defs>
       <path id="STSong-65" d="M 2477 1606 
L 691 1606 
Q 672 1478 672 1350 
Q 672 851 944 537 
Q 1216 224 1683 224 
Q 1907 224 2092 313 
Q 2278 403 2496 608 
L 2522 454 
Q 2074 -102 1363 -102 
Q 896 -102 582 275 
Q 269 653 269 1190 
Q 269 1779 617 2166 
Q 966 2554 1504 2554 
Q 1914 2554 2186 2294 
Q 2458 2035 2477 1606 
z
M 723 1741 
L 1888 1741 
Q 2061 1741 2061 1875 
Q 2061 2010 1933 2208 
Q 1805 2406 1478 2406 
Q 1197 2406 992 2224 
Q 787 2042 723 1741 
z
" transform="scale(0.015625)"/>
       <path id="STSong-78" d="M 2848 -26 
Q 2605 0 2240 0 
Q 1856 0 1626 -26 
L 1626 77 
L 1843 134 
Q 2003 179 2003 256 
Q 2003 314 1907 435 
L 1395 1082 
L 922 435 
Q 851 346 851 282 
Q 851 166 1101 115 
L 1293 77 
L 1293 -26 
Q 1037 0 826 0 
Q 422 0 109 -26 
L 109 77 
L 288 122 
Q 461 154 579 256 
Q 698 358 838 550 
L 1306 1184 
L 672 1952 
Q 390 2291 294 2310 
L 90 2355 
L 90 2458 
Q 224 2438 717 2438 
Q 1190 2438 1350 2458 
L 1350 2342 
L 1120 2310 
Q 1018 2291 1018 2227 
Q 1018 2138 1165 1952 
L 1536 1498 
L 1894 1965 
Q 1978 2080 1978 2163 
Q 1978 2291 1798 2323 
L 1606 2355 
L 1606 2458 
Q 1792 2432 2054 2435 
Q 2317 2438 2406 2438 
Q 2669 2438 2752 2458 
L 2752 2355 
L 2541 2317 
Q 2394 2285 2278 2205 
Q 2163 2125 2022 1933 
L 1619 1389 
L 2387 397 
Q 2566 179 2669 141 
L 2848 77 
L 2848 -26 
z
" transform="scale(0.015625)"/>
       <path id="STSong-70" d="M 890 2157 
Q 1446 2554 1965 2554 
Q 2445 2554 2739 2211 
Q 3034 1869 3034 1293 
Q 3034 710 2643 304 
Q 2253 -102 1645 -102 
Q 1280 -102 890 83 
L 890 -1274 
Q 890 -1357 944 -1405 
Q 998 -1453 1158 -1478 
L 1542 -1542 
L 1542 -1645 
Q 1293 -1619 806 -1619 
Q 403 -1619 77 -1645 
L 77 -1542 
L 346 -1491 
Q 442 -1472 470 -1430 
Q 499 -1389 499 -1267 
L 499 1939 
Q 499 2170 416 2182 
L 102 2234 
L 122 2323 
Q 442 2458 573 2547 
Q 704 2637 794 2784 
L 890 2784 
L 890 2157 
z
M 890 1965 
L 890 563 
Q 890 333 1101 182 
Q 1312 32 1645 32 
Q 2054 32 2323 336 
Q 2592 640 2592 1075 
Q 2592 1632 2355 1945 
Q 2118 2259 1722 2259 
Q 1331 2259 890 1965 
z
" transform="scale(0.015625)"/>
       <path id="STSong-61" d="M 2554 403 
L 2637 358 
Q 2451 -102 2125 -102 
Q 1926 -102 1814 10 
Q 1702 122 1702 333 
Q 1350 64 1180 -19 
Q 1011 -102 755 -102 
Q 339 -102 339 237 
Q 339 538 707 877 
Q 1075 1216 1715 1453 
L 1715 1888 
Q 1715 2093 1600 2224 
Q 1485 2355 1293 2355 
Q 1069 2355 909 2204 
Q 749 2054 717 1786 
Q 704 1677 611 1600 
Q 518 1523 416 1523 
Q 371 1523 323 1545 
Q 275 1568 275 1619 
Q 275 1709 441 1984 
Q 608 2259 857 2406 
Q 1107 2554 1344 2554 
Q 1741 2554 1920 2397 
Q 2099 2240 2099 1894 
L 2099 595 
Q 2099 448 2108 368 
Q 2118 288 2176 246 
Q 2234 205 2291 205 
Q 2432 205 2554 403 
z
M 1715 653 
L 1715 1312 
Q 1306 1152 1043 889 
Q 781 627 781 410 
Q 781 288 861 208 
Q 941 128 1062 128 
Q 1235 128 1475 304 
Q 1715 480 1715 653 
z
" transform="scale(0.015625)"/>
       <path id="STSong-6c" d="M 1453 -19 
Q 1139 0 742 0 
Q 346 0 32 -19 
L 32 83 
L 429 160 
Q 512 179 544 211 
Q 576 243 576 339 
L 576 3590 
Q 576 3725 499 3789 
Q 422 3853 160 3930 
L 160 4013 
Q 403 4064 819 4224 
L 966 4224 
L 966 352 
Q 966 230 992 195 
Q 1018 160 1114 141 
L 1453 83 
L 1453 -19 
z
" transform="scale(0.015625)"/>
      </defs>
      <use xlink:href="#STSong-65"/>
      <use xlink:href="#STSong-78" x="41.699997"/>
      <use xlink:href="#STSong-70" x="87.499985"/>
      <use xlink:href="#STSong-6f" x="138.499969"/>
      <use xlink:href="#STSong-6e" x="189.499954"/>
      <use xlink:href="#STSong-65" x="240.499939"/>
      <use xlink:href="#STSong-6e" x="282.199936"/>
      <use xlink:href="#STSong-74" x="333.199921"/>
      <use xlink:href="#STSong-69" x="362.399918"/>
      <use xlink:href="#STSong-61" x="385.299911"/>
      <use xlink:href="#STSong-6c" x="425.899902"/>
      <use xlink:href="#STSong-28" x="448.799896"/>
      <use xlink:href="#STSong-72" x="477.999893"/>
      <use xlink:href="#STSong-3d" x="511.299881"/>
      <use xlink:href="#STSong-33" x="577.999878"/>
      <use xlink:href="#STSong-32" x="624.899872"/>
      <use xlink:href="#STSong-2c" x="671.799866"/>
      <use xlink:href="#STSong-20" x="693.69986"/>
      <use xlink:href="#STSong-62" x="718.699844"/>
      <use xlink:href="#STSong-3d" x="769.699829"/>
      <use xlink:href="#STSong-30" x="836.399826"/>
      <use xlink:href="#STSong-2e" x="883.29982"/>
      <use xlink:href="#STSong-32" x="905.199814"/>
      <use xlink:href="#STSong-35" x="952.099808"/>
      <use xlink:href="#STSong-29" x="998.999802"/>
     </g>
    </g>
    <g id="line2d_58">
     <path d="M 302.469375 242.85625 
L 314.469375 242.85625 
L 326.469375 242.85625 
" style="fill: none; stroke: #9467bd; stroke-width: 1.5; stroke-linecap: square"/>
    </g>
    <g id="text_32">
     <!-- random(r=54, b=0.1) -->
     <g transform="translate(336.069375 247.05625) scale(0.12 -0.12)">
      <defs>
       <path id="STSong-6d" d="M 3578 83 
L 3763 122 
Q 3917 154 3981 202 
Q 4045 250 4045 390 
L 4045 1536 
Q 4045 1914 3894 2086 
Q 3744 2259 3424 2259 
Q 3002 2259 2688 1888 
L 2688 442 
Q 2688 307 2713 240 
Q 2739 173 2854 147 
L 3181 77 
L 3181 -26 
Q 2861 0 2502 0 
Q 2125 0 1773 -26 
L 1773 77 
L 1958 122 
Q 2138 166 2218 220 
Q 2298 275 2298 410 
L 2298 1549 
Q 2298 1869 2144 2061 
Q 1990 2253 1747 2253 
Q 1459 2253 1193 2083 
Q 928 1914 928 1741 
L 928 435 
Q 928 282 969 224 
Q 1011 166 1101 147 
L 1427 77 
L 1427 -26 
Q 1107 0 787 0 
Q 454 0 115 -26 
L 115 77 
L 301 115 
Q 442 147 490 204 
Q 538 262 538 397 
L 538 1779 
Q 538 1939 477 2000 
Q 416 2061 192 2093 
L 192 2195 
Q 518 2278 806 2669 
L 928 2669 
L 928 2054 
Q 1210 2310 1430 2432 
Q 1651 2554 1888 2554 
Q 2189 2554 2349 2464 
Q 2509 2374 2669 2086 
Q 2886 2310 3113 2432 
Q 3341 2554 3635 2554 
Q 4013 2554 4224 2326 
Q 4435 2099 4435 1677 
L 4435 384 
Q 4435 147 4538 128 
L 4826 77 
L 4826 -26 
Q 4506 0 4218 0 
Q 3834 0 3578 -19 
L 3578 83 
z
" transform="scale(0.015625)"/>
      </defs>
      <use xlink:href="#STSong-72"/>
      <use xlink:href="#STSong-61" x="33.299988"/>
      <use xlink:href="#STSong-6e" x="73.899979"/>
      <use xlink:href="#STSong-64" x="124.899963"/>
      <use xlink:href="#STSong-6f" x="174.899948"/>
      <use xlink:href="#STSong-6d" x="225.899933"/>
      <use xlink:href="#STSong-28" x="302.999924"/>
      <use xlink:href="#STSong-72" x="332.199921"/>
      <use xlink:href="#STSong-3d" x="365.499908"/>
      <use xlink:href="#STSong-35" x="432.199905"/>
      <use xlink:href="#STSong-34" x="479.099899"/>
      <use xlink:href="#STSong-2c" x="525.999893"/>
      <use xlink:href="#STSong-20" x="547.899887"/>
      <use xlink:href="#STSong-62" x="572.899872"/>
      <use xlink:href="#STSong-3d" x="623.899857"/>
      <use xlink:href="#STSong-30" x="690.599854"/>
      <use xlink:href="#STSong-2e" x="737.499847"/>
      <use xlink:href="#STSong-31" x="759.399841"/>
      <use xlink:href="#STSong-29" x="806.299835"/>
     </g>
    </g>
    <g id="line2d_59">
     <path d="M 302.469375 260.340625 
L 314.469375 260.340625 
L 326.469375 260.340625 
" style="fill: none; stroke: #d62728; stroke-width: 1.5; stroke-linecap: square"/>
    </g>
    <g id="text_33">
     <!-- T-SA-ADMM(r=16, b=1) -->
     <g transform="translate(336.069375 264.540625) scale(0.12 -0.12)">
      <defs>
       <path id="STSong-54" d="M 269 4134 
Q 314 4301 365 4301 
Q 410 4301 486 4160 
Q 544 4045 595 4022 
Q 646 4000 794 4000 
L 3270 4000 
Q 3501 4000 3571 4035 
Q 3642 4070 3706 4218 
Q 3744 4307 3802 4307 
Q 3885 4307 3885 4179 
L 3872 3168 
Q 3872 3066 3821 3066 
Q 3750 3066 3706 3251 
Q 3635 3565 3532 3686 
Q 3430 3808 3091 3808 
L 2291 3808 
L 2291 512 
Q 2291 339 2332 281 
Q 2374 224 2509 192 
L 3008 83 
L 3008 -19 
Q 2669 0 2010 0 
Q 1165 0 1011 -19 
L 1011 83 
L 1459 173 
Q 1645 211 1702 284 
Q 1760 358 1760 518 
L 1760 3808 
L 973 3808 
Q 762 3814 627 3712 
Q 493 3610 237 3245 
Q 122 3078 70 3078 
Q 38 3078 38 3149 
Q 38 3219 70 3354 
L 269 4134 
z
" transform="scale(0.015625)"/>
       <path id="STSong-53" d="M 2406 3053 
Q 2221 3891 1485 3891 
Q 1139 3891 905 3692 
Q 672 3494 672 3226 
Q 672 3014 861 2835 
Q 1050 2656 1645 2349 
Q 2253 2035 2525 1798 
Q 2797 1562 2797 1094 
Q 2797 557 2422 227 
Q 2048 -102 1376 -102 
Q 755 -102 243 198 
L 314 1152 
L 403 1152 
Q 461 678 787 374 
Q 1114 70 1510 70 
Q 1888 70 2147 294 
Q 2406 518 2406 832 
Q 2406 1114 2198 1306 
Q 1990 1498 1510 1747 
Q 845 2093 582 2374 
Q 320 2656 320 3021 
Q 320 3475 672 3769 
Q 1024 4064 1587 4064 
Q 2150 4064 2515 3782 
L 2490 3053 
L 2406 3053 
z
" transform="scale(0.015625)"/>
       <path id="STSong-41" d="M 1434 1818 
L 922 333 
Q 902 269 902 230 
Q 902 179 940 153 
Q 979 128 1101 122 
L 1549 90 
L 1549 -13 
Q 1427 0 762 0 
Q 96 0 -26 -13 
L -26 90 
L 378 122 
Q 589 141 672 358 
L 2106 4224 
L 2291 4224 
L 3706 403 
Q 3750 294 3788 256 
Q 3827 218 3930 186 
L 4282 77 
L 4282 -19 
Q 3955 0 3443 0 
Q 2931 0 2605 -19 
L 2605 77 
L 3027 141 
Q 3149 160 3197 185 
Q 3245 211 3245 262 
Q 3245 301 3213 390 
L 2694 1818 
L 1434 1818 
z
M 2643 1958 
L 2048 3610 
L 1485 1958 
L 2643 1958 
z
" transform="scale(0.015625)"/>
       <path id="STSong-4d" d="M 5280 -19 
Q 4666 0 4365 0 
Q 3968 0 3450 -19 
L 3450 83 
L 3834 160 
Q 3981 192 4019 256 
Q 4058 320 4058 506 
L 4058 3494 
L 2624 -51 
L 922 3770 
L 922 467 
Q 922 166 1114 147 
L 1702 83 
L 1702 -19 
Q 1318 0 877 0 
Q 550 0 45 -19 
L 45 83 
L 397 147 
Q 640 192 688 253 
Q 736 314 736 467 
L 736 3846 
L 154 3917 
L 154 4019 
Q 262 4000 768 4000 
Q 1197 4000 1357 4019 
L 2778 845 
L 4070 4019 
Q 4384 4000 4698 4000 
Q 5005 4000 5274 4019 
L 5274 3917 
L 4877 3834 
Q 4691 3795 4620 3718 
Q 4550 3642 4550 3456 
L 4550 550 
Q 4550 352 4585 285 
Q 4621 218 4736 192 
L 5280 83 
L 5280 -19 
z
" transform="scale(0.015625)"/>
      </defs>
      <use xlink:href="#STSong-54"/>
      <use xlink:href="#STSong-2d" x="61.499985"/>
      <use xlink:href="#STSong-53" x="92.799973"/>
      <use xlink:href="#STSong-41" x="140.699966"/>
      <use xlink:href="#STSong-2d" x="208.399948"/>
      <use xlink:href="#STSong-41" x="239.699936"/>
      <use xlink:href="#STSong-44" x="307.399918"/>
      <use xlink:href="#STSong-4d" x="384.499908"/>
      <use xlink:href="#STSong-4d" x="467.799896"/>
      <use xlink:href="#STSong-28" x="551.099884"/>
      <use xlink:href="#STSong-72" x="580.299881"/>
      <use xlink:href="#STSong-3d" x="613.599869"/>
      <use xlink:href="#STSong-31" x="680.299866"/>
      <use xlink:href="#STSong-36" x="727.19986"/>
      <use xlink:href="#STSong-2c" x="774.099854"/>
      <use xlink:href="#STSong-20" x="795.999847"/>
      <use xlink:href="#STSong-62" x="820.999832"/>
      <use xlink:href="#STSong-3d" x="871.999817"/>
      <use xlink:href="#STSong-31" x="938.699814"/>
      <use xlink:href="#STSong-29" x="985.599808"/>
     </g>
    </g>
    <g id="line2d_60">
     <path d="M 302.469375 277.825 
L 314.469375 277.825 
L 326.469375 277.825 
" style="fill: none; stroke-dasharray: 1.5,2.475; stroke-dashoffset: 0; stroke: #d62728; stroke-width: 1.5"/>
    </g>
    <g id="text_34">
     <!-- T-SA-ADMM(r=32, b=0.5) -->
     <g transform="translate(336.069375 282.025) scale(0.12 -0.12)">
      <use xlink:href="#STSong-54"/>
      <use xlink:href="#STSong-2d" x="61.499985"/>
      <use xlink:href="#STSong-53" x="92.799973"/>
      <use xlink:href="#STSong-41" x="140.699966"/>
      <use xlink:href="#STSong-2d" x="208.399948"/>
      <use xlink:href="#STSong-41" x="239.699936"/>
      <use xlink:href="#STSong-44" x="307.399918"/>
      <use xlink:href="#STSong-4d" x="384.499908"/>
      <use xlink:href="#STSong-4d" x="467.799896"/>
      <use xlink:href="#STSong-28" x="551.099884"/>
      <use xlink:href="#STSong-72" x="580.299881"/>
      <use xlink:href="#STSong-3d" x="613.599869"/>
      <use xlink:href="#STSong-33" x="680.299866"/>
      <use xlink:href="#STSong-32" x="727.19986"/>
      <use xlink:href="#STSong-2c" x="774.099854"/>
      <use xlink:href="#STSong-20" x="795.999847"/>
      <use xlink:href="#STSong-62" x="820.999832"/>
      <use xlink:href="#STSong-3d" x="871.999817"/>
      <use xlink:href="#STSong-30" x="938.699814"/>
      <use xlink:href="#STSong-2e" x="985.599808"/>
      <use xlink:href="#STSong-35" x="1007.499802"/>
      <use xlink:href="#STSong-29" x="1054.399796"/>
     </g>
    </g>
    <g id="line2d_61">
     <path d="M 302.469375 295.309375 
L 314.469375 295.309375 
L 326.469375 295.309375 
" style="fill: none; stroke-dasharray: 9.6,2.4,1.5,2.4; stroke-dashoffset: 0; stroke: #d62728; stroke-width: 1.5"/>
    </g>
    <g id="text_35">
     <!-- T-SA-ADMM(r=48, b=0.33) -->
     <g transform="translate(336.069375 299.509375) scale(0.12 -0.12)">
      <use xlink:href="#STSong-54"/>
      <use xlink:href="#STSong-2d" x="61.499985"/>
      <use xlink:href="#STSong-53" x="92.799973"/>
      <use xlink:href="#STSong-41" x="140.699966"/>
      <use xlink:href="#STSong-2d" x="208.399948"/>
      <use xlink:href="#STSong-41" x="239.699936"/>
      <use xlink:href="#STSong-44" x="307.399918"/>
      <use xlink:href="#STSong-4d" x="384.499908"/>
      <use xlink:href="#STSong-4d" x="467.799896"/>
      <use xlink:href="#STSong-28" x="551.099884"/>
      <use xlink:href="#STSong-72" x="580.299881"/>
      <use xlink:href="#STSong-3d" x="613.599869"/>
      <use xlink:href="#STSong-34" x="680.299866"/>
      <use xlink:href="#STSong-38" x="727.19986"/>
      <use xlink:href="#STSong-2c" x="774.099854"/>
      <use xlink:href="#STSong-20" x="795.999847"/>
      <use xlink:href="#STSong-62" x="820.999832"/>
      <use xlink:href="#STSong-3d" x="871.999817"/>
      <use xlink:href="#STSong-30" x="938.699814"/>
      <use xlink:href="#STSong-2e" x="985.599808"/>
      <use xlink:href="#STSong-33" x="1007.499802"/>
      <use xlink:href="#STSong-33" x="1054.399796"/>
      <use xlink:href="#STSong-29" x="1101.299789"/>
     </g>
    </g>
   </g>
  </g>
 </g>
 <defs>
  <clipPath id="pd8d3db571e">
   <rect x="47.16875" y="16.540225" width="435.36625" height="296.853525"/>
  </clipPath>
  <clipPath id="p19d7594c8b">
   <rect x="112.473688" y="150.124311" width="174.1465" height="103.898734"/>
  </clipPath>
 </defs>
</svg>
